<?xml version="1.0" encoding="UTF-8" standalone="no"?>
<!-- Created with Inkscape (http://www.inkscape.org/) -->

<svg
   xmlns:dc="http://purl.org/dc/elements/1.1/"
   xmlns:cc="http://creativecommons.org/ns#"
   xmlns:rdf="http://www.w3.org/1999/02/22-rdf-syntax-ns#"
   xmlns:svg="http://www.w3.org/2000/svg"
   xmlns="http://www.w3.org/2000/svg"
   xmlns:sodipodi="http://sodipodi.sourceforge.net/DTD/sodipodi-0.dtd"
   xmlns:inkscape="http://www.inkscape.org/namespaces/inkscape"
   width="512"
   height="512"
   viewBox="0 0 135.46666 135.46667"
   version="1.1"
   id="svg8"
   inkscape:version="0.92.4 (33fec40, 2019-01-16)"
   sodipodi:docname="dynamic-texture-base.svg"
   inkscape:export-filename="/home/hamilton/Code/robolucha/robolucha-game/src/assets/dynamic-texture/1.png"
   inkscape:export-xdpi="96"
   inkscape:export-ydpi="96">
  <defs
     id="defs2" />
  <sodipodi:namedview
     id="base"
     pagecolor="#ffffff"
     bordercolor="#666666"
     borderopacity="1.0"
     inkscape:pageopacity="0.0"
     inkscape:pageshadow="2"
     inkscape:zoom="2.317432"
     inkscape:cx="269.49473"
     inkscape:cy="103.32446"
     inkscape:document-units="mm"
     inkscape:current-layer="g4902"
     showgrid="false"
     units="px"
     inkscape:window-width="1869"
     inkscape:window-height="1025"
     inkscape:window-x="51"
     inkscape:window-y="27"
     inkscape:window-maximized="1" />
  <metadata
     id="metadata5">
    <rdf:RDF>
      <cc:Work
         rdf:about="">
        <dc:format>image/svg+xml</dc:format>
        <dc:type
           rdf:resource="http://purl.org/dc/dcmitype/StillImage" />
        <dc:title></dc:title>
      </cc:Work>
    </rdf:RDF>
  </metadata>
  <g
     inkscape:label="Layer 1"
     inkscape:groupmode="layer"
     id="layer1"
     transform="translate(0,-161.53332)"
     style="display:none"
     sodipodi:insensitive="true">
    <g
       id="g4602"
       transform="matrix(0.99996417,0,0,0.99975477,0,0.03960246)">
      <path
         style="fill:#ae96a3;stroke-width:0.26458332"
         d="m 0,229.26666 v -67.73333 h 67.73333 67.73333 v 67.73333 67.73333 H 67.73333 0 Z"
         id="path4618"
         inkscape:connector-curvature="0" />
      <path
         style="fill:#da8b6b;stroke-width:0.26458332"
         d="m 0,229.26574 v -67.73241 h 67.735756 67.735764 l -0.008,67.7251 -0.008,67.72509 -27.40851,0.0115 c -26.073985,0.011 -27.399402,-0.0112 -27.22169,-0.45479 0.102743,-0.25647 0.411906,-1.71647 0.687028,-3.24444 0.275122,-1.52797 0.556599,-3.01724 0.625504,-3.30949 0.06891,-0.29225 0.03149,-0.68313 -0.08316,-0.86863 -0.713311,-1.15416 -23.140177,-1.69955 -31.519538,-0.76651 -4.085352,0.4549 -9.292032,1.28897 -11.178646,1.79073 -0.932944,0.24813 -0.992187,0.32582 -0.992187,1.30121 0,1.37537 0.558268,5.08679 0.7381,4.90695 0.07783,-0.0778 -0.01198,-1.34605 -0.199607,-2.81827 -0.281712,-2.21056 -0.280321,-2.71434 0.008,-2.89253 1.156983,-0.71505 10.459563,-1.97813 17.577465,-2.38662 7.783674,-0.44669 24.281534,0.24699 25.089476,1.05493 0.185746,0.18575 0.07842,1.33995 -0.339526,3.65127 -0.336122,1.85882 -0.667385,3.52814 -0.736142,3.7096 -0.0991,0.26151 -8.458039,0.3299 -40.31368,0.32981 L 0,296.99815 Z m 108.4075,67.30981 c -0.0879,-0.0879 -0.31612,-0.0973 -0.50711,-0.0209 -0.21107,0.0845 -0.14838,0.14715 0.15985,0.15985 0.27891,0.0115 0.43518,-0.0511 0.34726,-0.13897 z M 2.783194,294.66921 c -0.1362546,-1.35676 -0.093888,-1.87235 0.1715844,-2.08815 0.5564322,-0.45231 5.4907214,-1.60826 8.8915286,-2.083 4.336008,-0.6053 12.576244,-0.39813 16.331817,0.4106 2.604447,0.56084 7.051476,1.92133 7.807449,2.38855 0.229145,0.14162 0.452945,0.86276 0.550026,1.77234 l 0.163684,1.53357 0.0389,-1.64686 c 0.0456,-1.93033 0.0428,-1.9327 -3.665267,-3.10505 -8.901519,-2.81432 -19.35042,-2.85831 -28.6328918,-0.12054 -1.7677954,0.5214 -2.3305441,0.98844 -2.1702548,1.80117 0.046149,0.23399 0.1569377,0.99099 0.2461976,1.68221 0.2501957,1.9375 0.4712567,1.48679 0.267228,-0.54484 z m 99.478256,1.17103 c -0.7276,-0.34397 -1.63334,-0.96789 -2.01275,-1.38647 -1.260455,-1.39061 -11.348704,-15.11509 -11.348704,-15.43927 0,-0.45582 2.380358,-3.18118 2.778476,-3.18118 0.183121,0 0.844487,0.67753 1.469703,1.50563 2.98228,3.95 8.033045,8.08939 10.914565,8.94511 2.81471,0.83587 5.76522,0.23858 9.15436,-1.85318 2.52734,-1.55985 4.06624,-2.81959 7.21268,-5.90425 l 2.5579,-2.50769 1.01397,0.80408 c 1.51726,1.2032 2.02228,1.8379 1.77819,2.23478 -0.91806,1.49275 -12.73448,15.37452 -13.4785,15.83435 -0.51988,0.3213 -1.50325,0.80238 -2.18527,1.06906 -0.68202,0.26667 -1.00191,0.48927 -0.71087,0.49465 0.69189,0.0128 2.98169,-1.09428 3.88879,-1.88017 1.23361,-1.06876 12.90445,-15.41356 12.90845,-15.86596 0.004,-0.45526 -2.65047,-2.87641 -3.15364,-2.87641 -0.1622,0 -1.35201,1.05007 -2.64401,2.3335 -5.25353,5.21862 -10.38738,8.26864 -13.87173,8.2412 -3.51519,-0.0277 -8.643865,-3.60042 -12.869485,-8.96512 -0.926544,-1.17631 -1.811843,-2.13746 -1.967333,-2.1359 -0.300728,0.003 -3.325413,3.33693 -3.325413,3.66537 0,0.1068 2.708672,3.81975 6.019271,8.251 6.09571,8.15914 7.10486,9.2353 8.6651,9.24052 0.30296,0.001 -0.0364,-0.26559 -0.79375,-0.62365 z m 24.87313,0.10541 c -1.22338,-0.80638 -2.2205,-2.33414 -2.82732,-4.33195 -1.43054,-4.70977 0.6492,-10.22583 4.26378,-11.30879 2.0565,-0.61614 4.41707,0.69742 5.70867,3.17664 0.34823,0.66842 0.63869,1.02041 0.64546,0.7822 0.0192,-0.67536 -1.6108,-2.92762 -2.59693,-3.58829 -2.74139,-1.83665 -5.87296,-0.64868 -7.69465,2.91897 -0.78798,1.5432 -0.9264,2.10258 -1.02365,4.1367 -0.15451,3.23171 0.52876,5.5027 2.22232,7.38635 0.66922,0.74434 1.4141,1.35256 1.65527,1.3516 0.29013,-0.001 0.1707,-0.17826 -0.35295,-0.52343 z m 5.42236,-0.004 c 0.94383,-0.67207 2.38378,-2.82914 2.3702,-3.5506 -0.008,-0.4045 -0.11526,-0.30813 -0.40699,0.36438 -0.56702,1.3071 -1.62851,2.62205 -2.58987,3.20825 -0.45608,0.27811 -0.66903,0.5061 -0.47321,0.50664 0.19581,5.3e-4 0.69076,-0.23736 1.09987,-0.52867 z M 85.063537,255.46427 c -0.436562,-0.11715 -4.051559,-0.54819 -8.033326,-0.95788 -5.0205,-0.51657 -7.278968,-0.84755 -7.36809,-1.0798 -0.07068,-0.1842 0.163724,-3.58218 0.520907,-7.55106 0.357182,-3.96889 0.552648,-7.32406 0.434369,-7.45592 -0.124659,-0.13899 -3.010197,0.73103 -6.864779,2.06979 -3.657351,1.27025 -6.792097,2.25491 -6.966105,2.18814 -0.182682,-0.0701 -1.918301,-7.48546 -4.107215,-17.54791 l -3.790838,-17.42651 -2.9606,-7.40833 c -1.628328,-4.07459 -3.073466,-7.34881 -3.211417,-7.27604 -0.147225,0.0776 -0.213794,1.77149 -0.161179,4.10104 0.17245,7.63487 -0.757259,16.90897 -2.346791,23.40995 -1.614712,6.60396 -3.852031,11.0555 -7.25016,14.42546 -2.873433,2.84962 -6.004297,4.3539 -9.079668,4.36249 -0.621633,0.002 -1.124479,0.12997 -1.124479,0.28676 0,0.41882 2.723777,0.028 4.661844,-0.66898 4.318529,-1.55296 7.489965,-4.59856 9.990796,-9.59439 3.498892,-6.98962 5.091281,-15.40625 5.420341,-28.64942 l 0.167643,-6.74687 2.732428,6.74687 2.732429,6.74688 3.838593,17.59479 c 2.111227,9.67713 3.977259,17.73894 4.146738,17.91513 0.239736,0.24923 1.805956,-0.19959 7.055019,-2.0217 5.845839,-2.02926 6.757461,-2.28059 6.826149,-1.88193 0.0436,0.25306 -0.164759,3.16728 -0.463021,6.47605 -0.633976,7.03298 -0.666181,8.32472 -0.211566,8.48589 0.461698,0.16367 14.146908,1.65267 15.279687,1.66248 l 0.926041,0.008 -0.79375,-0.213 z m 0.395034,-38.63253 c 1.685303,-0.4538 3.419763,0.0628 4.939527,1.47129 0.688152,0.63776 0.753737,0.65065 1.075042,0.21124 0.396917,-0.54282 0.862825,-2.09945 0.864962,-2.88991 7.94e-4,-0.29998 -0.241286,-0.80599 -0.537998,-1.12448 -0.513808,-0.5515 -0.751933,-0.57905 -5.005443,-0.57905 -2.456283,0 -4.658704,0.074 -4.89427,0.16435 -0.235564,0.0904 -0.594593,0.48593 -0.79784,0.87897 -0.423482,0.81892 -0.16173,2.50716 0.559353,3.60767 l 0.424399,0.64772 1.133909,-1.0452 c 0.635389,-0.58568 1.619475,-1.17595 2.238359,-1.3426 z m -0.68966,-4.23205 c 1.997509,-0.32112 2.346121,-0.65052 0.426918,-0.4034 -1.534758,0.19762 -4.285154,1.28166 -4.78749,1.88694 -0.163488,0.19699 0.400331,1.2e-4 1.252932,-0.4375 0.852601,-0.43761 2.251038,-0.90833 3.10764,-1.04604 z m -3.419052,-0.30331 c 0.879822,-1.04561 1.313262,-2.58438 1.079283,-3.8316 -0.283956,-1.51361 -2.047515,-3.17118 -3.62576,-3.40785 -1.345488,-0.20177 -3.184458,0.41895 -3.926302,1.32527 -0.251574,0.30734 0.01976,0.21007 0.741111,-0.26569 2.0169,-1.33022 4.44904,-0.8372 5.806426,1.17702 1.185445,1.75908 0.550831,4.63697 -1.233537,5.59394 -1.19774,0.64235 -1.326492,0.82694 -0.335947,0.48164 0.460819,-0.16065 1.133446,-0.64337 1.494726,-1.07273 z m 3.227597,-11.34014 c 1.259538,-0.87312 2.197449,-1.5875 2.084247,-1.5875 -0.113202,0 -1.140352,0.65485 -2.282558,1.45521 -1.142206,0.80037 -2.201891,1.45521 -2.35486,1.45521 -0.161293,0 -0.218726,-0.30563 -0.136721,-0.7276 0.117028,-0.6022 0.0983,-0.6364 -0.108656,-0.19844 -0.785903,1.66314 -0.01556,1.55389 2.798548,-0.39688 z m -1.803136,-2.38125 c 0,-0.21828 -0.160477,0.0198 -0.356616,0.52917 -0.196138,0.50932 -0.356616,1.10464 -0.356616,1.32292 0,0.21828 0.160478,-0.0198 0.356616,-0.52917 0.196139,-0.50932 0.356616,-1.10463 0.356616,-1.32292 z m 0.371086,-1.9745 c -0.109193,-0.1872 -1.150366,-1.09423 -2.313717,-2.01562 -1.992649,-1.57821 -2.076948,-1.6859 -1.455209,-1.8589 l 0.659974,-0.18364 -0.727604,-0.0264 c -1.193858,-0.0433 -0.854355,0.56739 1.170051,2.10457 2.541773,1.93002 2.623455,2.02455 2.462123,2.84913 -0.133655,0.6831 -0.128924,0.68632 0.132151,0.0898 0.148923,-0.34025 0.181427,-0.7718 0.07223,-0.959 z m 1.718749,-4.64008 c 0.07545,-0.27886 0.04034,-0.30274 -0.118065,-0.0803 -0.123991,0.17411 -0.996259,0.36259 -1.938371,0.41883 l -1.712931,0.10226 1.830996,-0.022 c 1.390276,-0.0167 1.856843,-0.11748 1.938371,-0.41883 z m -42.856753,-1.63683 -0.07095,-1.10766 8.699637,-2.8427 c 4.784799,-1.56349 8.792996,-2.94028 8.907103,-3.05953 0.114107,-0.11925 -0.0109,-3.78869 -0.277794,-8.15432 -0.370131,-6.05424 -0.411853,-8.00777 -0.175856,-8.23366 0.170175,-0.16289 6.203003,-1.09132 13.406284,-2.06316 14.028263,-1.89266 14.658622,-1.98796 14.460433,-2.18615 -0.256847,-0.25684 -27.818163,3.65995 -28.174956,4.004 -0.294307,0.2838 -0.283205,1.48003 0.06671,7.18784 0.230872,3.76606 0.419518,7.40738 0.419211,8.09183 l -5.61e-4,1.24445 -8.665104,2.81859 c -4.765807,1.55023 -8.822211,2.94645 -9.014227,3.1027 -0.192018,0.15625 -0.29405,0.4947 -0.226737,0.75211 0.07365,0.28162 -0.69958,-0.20104 -1.941608,-1.212 -2.678096,-2.17985 -5.187648,-3.65657 -7.890118,-4.64285 -3.302531,-1.20528 -8.510121,-2.00535 -8.510121,-1.30746 0,0.15411 0.102148,0.21707 0.226996,0.13991 0.48046,-0.29694 4.929484,0.41723 7.256351,1.1648 3.693631,1.1867 8.066482,3.90031 10.623965,6.5928 0.427408,0.44997 0.816523,0.81813 0.864698,0.81813 0.04817,0 0.05566,-0.49845 0.01664,-1.10767 z m 43.691466,-0.52577 c 0.303393,-0.89839 0.505047,-1.68001 0.448122,-1.73693 -0.05692,-0.0569 -0.311565,0.52929 -0.565867,1.3027 -0.254304,0.77342 -0.517297,1.55504 -0.584432,1.73694 -0.06713,0.1819 -0.06072,0.33073 0.01426,0.33073 0.07497,0 0.384537,-0.73505 0.687927,-1.63344 z m 1.076357,-2.99677 c 0,-0.14552 -0.115414,-0.086 -0.256479,0.13229 -0.141066,0.21828 -0.256479,0.51594 -0.256479,0.66146 0,0.14552 0.115413,0.086 0.256479,-0.13229 0.141065,-0.21829 0.256479,-0.51594 0.256479,-0.66146 z"
         id="path4616"
         inkscape:connector-curvature="0" />
      <path
         style="fill:#4f97e5;stroke-width:0.26458332"
         d="m 2.7997919,294.97374 c -0.137604,-1.51851 -0.097025,-2.10909 0.1619432,-2.35688 0.4976691,-0.47619 5.2691541,-1.6141 8.8845719,-2.1188 4.336008,-0.6053 12.576244,-0.39813 16.331817,0.4106 3.202511,0.68963 7.444321,2.06408 7.959214,2.57897 0.222332,0.22233 0.37516,0.90637 0.37516,1.67918 0,0.7172 0.119063,1.30401 0.264584,1.30401 0.14552,0 0.264583,0.11907 0.264583,0.26459 0,0.17365 -5.852766,0.26458 -17.02913,0.26458 H 2.9834053 Z m 36.5083121,1.69552 c -0.05401,-0.1819 -0.243993,-1.56451 -0.42218,-3.07247 -0.26602,-2.25127 -0.261519,-2.78034 0.02516,-2.95751 1.156983,-0.71505 10.459564,-1.97813 17.577466,-2.38662 7.783674,-0.44669 24.281534,0.24699 25.089476,1.05493 0.185745,0.18575 0.0851,1.30057 -0.318376,3.52668 -0.324487,1.79029 -0.512858,3.48973 -0.418602,3.77654 0.139263,0.42375 0.117879,0.4471 -0.114113,0.1246 -0.194132,-0.26987 -0.286787,-0.29104 -0.289544,-0.0661 -0.006,0.48522 -40.985199,0.48522 -41.129276,0 z m 64.602886,-0.20491 c -1.43187,-0.36152 -2.86694,-1.15299 -3.66229,-2.01982 -1.22228,-1.33212 -11.348704,-15.10031 -11.348704,-15.43003 0,-0.45582 2.380358,-3.18118 2.778476,-3.18118 0.183121,0 0.844487,0.67753 1.469703,1.50563 2.98228,3.95 8.033045,8.08939 10.914565,8.94511 2.81471,0.83587 5.76522,0.23858 9.15436,-1.85318 2.52734,-1.55985 4.06624,-2.81959 7.21268,-5.90425 l 2.5579,-2.50769 1.01397,0.80408 c 1.51726,1.2032 2.02228,1.8379 1.77819,2.23478 -0.11751,0.19107 -2.99315,3.70969 -6.39031,7.81916 -6.33517,7.66351 -6.95663,8.25979 -9.59612,9.20733 -1.44944,0.52033 -4.53679,0.7198 -5.88242,0.38006 z m 23.44453,-0.39312 c -5.19108,-3.1116 -4.34386,-14.10069 1.21552,-15.76632 2.23818,-0.67057 4.64209,0.85074 5.99438,3.79352 0.68043,1.4807 0.76043,1.93794 0.75282,4.3026 -0.007,2.26654 -0.10508,2.85445 -0.68214,4.10104 -1.74156,3.76221 -4.61141,5.1691 -7.28058,3.56916 z M 85.063537,255.46427 c -0.436562,-0.11715 -4.051559,-0.54819 -8.033326,-0.95788 -5.0205,-0.51657 -7.278968,-0.84755 -7.36809,-1.0798 -0.07068,-0.1842 0.163724,-3.58218 0.520907,-7.55106 0.357182,-3.96889 0.552648,-7.32406 0.434369,-7.45592 -0.124659,-0.13899 -3.010197,0.73103 -6.864779,2.06979 -3.657351,1.27025 -6.792097,2.25491 -6.966105,2.18814 -0.182682,-0.0701 -1.918301,-7.48546 -4.107215,-17.54791 l -3.790838,-17.42651 -2.946837,-7.37393 c -1.620758,-4.05566 -3.065896,-7.32988 -3.211417,-7.27604 -0.165825,0.0614 -0.231124,1.57925 -0.174942,4.06664 0.235132,10.41009 -1.454124,22.40807 -4.096925,29.09849 -2.516618,6.37098 -6.401892,10.78204 -10.884608,12.35759 -3.364251,1.18243 -7.528493,1.38388 -10.203781,0.4936 C 10.086129,236.64557 5.1256301,228.15238 3.191196,214.79312 2.2198614,208.08505 1.8683059,199.2952 2.3427739,193.58023 l 0.1840298,-2.21664 1.5771585,-1.46801 c 3.2134533,-2.99107 7.8343338,-5.52004 12.1401978,-6.64423 2.656338,-0.69352 6.099108,-1.00216 6.594316,-0.59118 0.198689,0.1649 0.416973,0.2441 0.485075,0.176 0.0681,-0.0681 1.15521,-0.007 2.415794,0.1366 5.449239,0.61919 10.537386,3.08222 14.950543,7.23715 l 1.399267,1.31738 -0.07635,-1.15569 -0.07635,-1.15569 8.699637,-2.8427 c 4.784799,-1.56349 8.792996,-2.94028 8.907103,-3.05953 0.114107,-0.11925 -0.0109,-3.78869 -0.277794,-8.15432 -0.370142,-6.05441 -0.411861,-8.00789 -0.175856,-8.23421 0.170175,-0.1632 6.549522,-1.14673 14.176324,-2.18564 7.626805,-1.03891 13.996649,-1.99471 14.155208,-2.124 0.230844,-0.18823 25.791793,3.48695 28.400273,4.08343 0.53304,0.12189 0.5948,0.29474 0.59039,1.65244 -0.003,0.83397 -0.2329,4.67147 -0.51156,8.52777 -0.27865,3.8563 -0.42527,7.08455 -0.32581,7.17389 0.0995,0.0893 4.25256,1.26733 9.22912,2.61777 5.21976,1.41643 9.10424,2.60116 9.18053,2.79997 0.0727,0.18955 -1.71304,4.59881 -3.96839,9.79836 l -4.10064,9.45373 -4.23128,16.55574 c -5.11224,20.00266 -4.92595,19.33387 -5.38553,19.33387 -0.20256,0 -3.26509,-1.06174 -6.80563,-2.35942 -3.54054,-1.29768 -6.511,-2.27994 -6.60102,-2.18281 -0.09,0.0971 0.006,3.02101 0.21431,6.49751 0.20789,3.47649 0.27878,6.42009 0.15754,6.54134 -0.24262,0.24262 -15.658806,2.63032 -16.735364,2.59202 -0.368901,-0.0131 -1.027917,-0.11971 -1.46448,-0.23686 z m 5.574416,-33.10624 c 1.901492,-0.58185 3.307543,-1.59119 4.06349,-2.91698 1.806506,-3.16829 -1.295768,-6.40346 -6.79546,-7.08657 -2.54617,-0.31625 -4.212606,-0.0777 -6.076048,0.86967 -1.701638,0.86514 -3.248689,3.02261 -3.248689,4.53054 0,0.78452 0.821187,2.51911 1.432957,3.02684 0.227314,0.18865 0.356362,0.43513 0.286769,0.54774 -0.06959,0.1126 0.02101,0.19473 0.20135,0.1825 0.180335,-0.0122 0.895776,0.24595 1.589865,0.57373 2.488541,1.17517 5.302644,1.26492 8.545766,0.27253 z m -6.103582,-1.7865 c -2.04847,-0.93183 -2.127337,-1.73659 -0.276484,-2.82126 1.99277,-1.16784 4.627932,-0.72 6.025287,1.02398 0.685638,0.85572 0.578792,1.1316 -0.672963,1.73756 -1.435732,0.69502 -3.622667,0.72075 -5.07584,0.0597 z m -3.184512,-8.27515 c 1.6104,-1.91385 1.526527,-4.20421 -0.217842,-5.94858 -1.4239,-1.4239 -2.95561,-1.73723 -4.703767,-0.96221 -0.995016,0.44113 -2.17614,1.39149 -1.729359,1.39149 0.08315,0 -0.02133,0.41289 -0.232188,0.91754 -0.492718,1.17924 -0.487029,2.34787 0.01617,3.32094 0.219744,0.42494 0.368573,0.91948 0.330729,1.09898 -0.03785,0.1795 0.109784,0.33248 0.328065,0.33995 0.218281,0.007 0.694531,0.18616 1.058333,0.39709 0.87911,0.5097 2.865491,0.75232 3.767849,0.4602 0.398828,-0.12911 1.020734,-0.58604 1.382014,-1.0154 z m -1.974863,-1.68284 c -0.363802,-0.20797 -1.048411,-0.38235 -1.521354,-0.3875 -0.908785,-0.01 -1.918229,-0.78063 -1.918229,-1.46459 0,-0.50675 0.939964,-1.45521 1.442185,-1.45521 0.211119,0 1.004475,0.1331 1.763012,0.29578 2.164633,0.46423 3.250742,1.94174 2.199862,2.99262 -0.509709,0.50971 -1.097013,0.51535 -1.965476,0.0189 z m 18.917707,1.98043 c 2.334977,-1.43754 2.359707,-4.99118 0.04674,-6.71528 -1.029152,-0.76713 -3.290178,-0.77306 -4.310472,-0.0113 -2.306283,1.72188 -2.681904,4.37439 -0.875295,6.181 1.393881,1.39388 3.412969,1.60824 5.139023,0.54558 z m -5.250658,-2.06741 c -1.069869,-1.18219 -0.06916,-2.45554 2.319483,-2.95142 2.286809,-0.47474 3.640407,0.53097 2.682435,1.99302 -0.295155,0.45046 -0.668043,0.6485 -1.221065,0.6485 -0.437883,0 -1.223584,0.17859 -1.746004,0.39688 -1.2252,0.51192 -1.503624,0.50002 -2.034849,-0.087 z m -8.250319,-9.70443 2.539256,-1.72162 1.996649,1.34732 c 1.098156,0.74103 2.044128,1.29984 2.102165,1.24181 0.05804,-0.058 -0.187984,-1.05046 -0.546711,-2.2054 -0.358728,-1.15493 -0.654019,-2.35334 -0.656201,-2.66313 -0.0028,-0.39478 0.609348,-1.02788 2.046549,-2.11666 1.810239,-1.37138 1.973011,-1.56221 1.389062,-1.62849 -0.363802,-0.0413 -1.610357,-0.16035 -2.770121,-0.26458 l -2.108663,-0.18951 -0.847968,-2.24896 c -0.466384,-1.23693 -0.856938,-2.57638 -0.8679,-2.97656 -0.01095,-0.40018 -0.127732,-0.7276 -0.259492,-0.7276 -0.201039,0 -1.321972,2.78981 -1.993278,4.96093 -0.148405,0.47997 -0.377939,0.59532 -1.184654,0.59532 -2.308563,0 -5.049173,0.35302 -5.049173,0.65039 0,0.16949 0.94569,1.01523 2.101533,1.87941 1.155842,0.86418 2.162968,1.71702 2.238057,1.8952 0.07509,0.17818 -0.2144,1.48786 -0.643308,2.91041 -0.428908,1.42255 -0.78119,2.67576 -0.782849,2.7849 -0.0077,0.50851 0.959532,0.0616 3.297047,-1.52318 z"
         id="path4614"
         inkscape:connector-curvature="0" />
      <path
         style="fill:#7276b0;stroke-width:0.26458332"
         d="m 2.7997919,294.97374 c -0.137604,-1.51851 -0.097025,-2.10909 0.1619432,-2.35688 0.4159938,-0.39804 5.2298142,-1.6279 7.1648999,-1.83053 0.760507,-0.0796 0.05933,0.13987 -1.558169,0.48779 -1.6174994,0.34792 -3.5594058,0.83801 -4.3153473,1.08909 l -1.3744392,0.45651 0.1823246,2.09014 c 0.1002787,1.14957 0.1238419,2.09013 0.052363,2.09013 -0.071479,0 -0.2125877,-0.91181 -0.3135752,-2.02625 z m 33.5670451,1.40572 c -0.08566,-0.3413 -0.107945,-1.08544 -0.04952,-1.65365 0.09257,-0.90035 0.111942,-0.85461 0.150704,0.35595 0.02447,0.76399 0.163539,1.38906 0.30906,1.38906 0.14552,0 0.264583,0.11907 0.264583,0.26459 0,0.52567 -0.522764,0.24993 -0.674827,-0.35595 z m 44.231471,0.21343 c -0.09074,-0.23646 -0.157433,-0.56902 -0.148207,-0.73902 0.0092,-0.17 0.130845,-0.0239 0.270267,0.32464 0.139422,0.34855 0.206116,0.6811 0.148206,0.73901 -0.05791,0.0579 -0.17953,-0.0882 -0.270266,-0.32463 z m -41.513137,-1.44498 c -0.09893,-0.94589 -0.257545,-2.3361 -0.352483,-3.08936 l -0.172611,-1.36956 1.112541,-0.29958 c 0.611899,-0.16476 1.252524,-0.25066 1.423609,-0.19086 0.171085,0.0598 -0.194329,0.19618 -0.81203,0.30309 -0.617702,0.10692 -1.193091,0.30765 -1.278641,0.44608 -0.08555,0.13843 -0.01312,1.29385 0.160935,2.56761 0.174067,1.27375 0.267452,2.54912 0.207518,2.83414 -0.05993,0.28503 -0.18991,-0.25568 -0.288838,-1.20156 z m 64.673819,1.2743 c -0.63156,-0.14109 -1.09542,-0.3094 -1.0308,-0.37403 0.13666,-0.13665 2.84055,0.41245 2.84055,0.57686 0,0.15071 -0.4559,0.0996 -1.80975,-0.20283 z m 3.34765,0.13246 c 0.19099,-0.0764 0.4192,-0.067 0.50711,0.0209 0.0879,0.0879 -0.0683,0.15046 -0.34726,0.13897 -0.30823,-0.0127 -0.37092,-0.0754 -0.15985,-0.15985 z m 20.07745,-0.60719 c -0.68334,-0.43335 -1.24243,-0.84516 -1.24243,-0.91511 0,-0.07 0.59531,0.24288 1.32292,0.69518 1.16682,0.72534 1.51509,1.00786 1.24242,1.00786 -0.0443,0 -0.63958,-0.35457 -1.32291,-0.78793 z m 3.44951,0.49051 c 0.17948,-0.18082 0.39297,-0.26211 0.47444,-0.18065 0.0815,0.0815 -0.0654,0.22941 -0.32632,0.32876 -0.37709,0.14359 -0.40748,0.1132 -0.14812,-0.14811 z m -22.48517,-0.14239 c 0.1819,-0.0734 0.47956,-0.0734 0.66146,0 0.1819,0.0734 0.0331,0.13345 -0.33073,0.13345 -0.3638,0 -0.51263,-0.0601 -0.33073,-0.13345 z m 23.48177,-0.25746 c 0.14552,-0.12808 0.68087,-0.58914 1.18967,-1.02458 l 0.92507,-0.79169 -0.66049,0.75189 c -0.36328,0.41355 -0.89862,0.87461 -1.18966,1.02458 -0.29105,0.14997 -0.41011,0.16788 -0.26459,0.0398 z m -21.29896,-0.36107 c 0.21829,-0.14106 0.51594,-0.25648 0.66146,-0.25648 0.14552,0 0.086,0.11542 -0.13229,0.25648 -0.21828,0.14107 -0.51594,0.25648 -0.66146,0.25648 -0.14552,0 -0.086,-0.11541 0.13229,-0.25648 z m -9.96031,-1.12448 c -0.442038,-0.47294 -1.378647,-1.6338 -2.081354,-2.57968 -0.702709,-0.94589 -1.391007,-1.86862 -1.529553,-2.05052 -0.138549,-0.1819 -0.19222,-0.33073 -0.119275,-0.33073 0.07295,0 0.818317,0.92273 1.656377,2.05052 0.838057,1.12778 1.887875,2.43747 2.332915,2.91041 0.44505,0.47295 0.74964,0.8599 0.67688,0.8599 -0.0728,0 -0.49395,-0.38695 -0.93599,-0.8599 z m 11.01865,0.74623 c 0,-0.0728 0.23812,-0.25974 0.52916,-0.4155 0.29105,-0.15576 0.52917,-0.22367 0.52917,-0.15091 0,0.0728 -0.23812,0.25974 -0.52917,0.4155 -0.29104,0.15576 -0.52916,0.22367 -0.52916,0.15091 z m -30.649892,-0.68008 c 0,-0.3638 0.06006,-0.51263 0.133453,-0.33073 0.0734,0.1819 0.0734,0.47956 0,0.66146 -0.0734,0.1819 -0.133453,0.0331 -0.133453,-0.33073 z m 31.972802,-0.0828 c 0,-0.0455 0.38696,-0.43249 0.8599,-0.8599 l 0.8599,-0.7771 -0.77711,0.85989 c -0.72437,0.80155 -0.94269,0.98152 -0.94269,0.77711 z m 12.43252,-0.77711 c -0.28836,-0.47294 -0.52473,-0.96903 -0.52528,-1.10243 -0.001,-0.30154 0.0363,-0.2521 0.73604,0.97014 0.69574,1.21523 0.51767,1.327 -0.21076,0.13229 z m 8.91814,-0.59198 c 0.24201,-0.5075 0.48699,-0.87575 0.5444,-0.81834 0.12103,0.12103 -0.68215,1.74105 -0.8632,1.74105 -0.0667,0 0.0768,-0.41522 0.3188,-0.92271 z m -53.049073,-0.003 c 0.0054,-0.43656 0.06469,-0.58312 0.131773,-0.32569 0.06708,0.25743 0.06267,0.61462 -0.0098,0.79375 -0.07248,0.17913 -0.127363,-0.0315 -0.121971,-0.46806 z m -46.882829,-0.39687 c -0.218281,-0.14107 -0.277812,-0.25648 -0.132291,-0.25648 0.14552,0 0.443177,0.11541 0.661458,0.25648 0.218281,0.14106 0.277812,0.25648 0.132292,0.25648 -0.145521,0 -0.443177,-0.11542 -0.661459,-0.25648 z m 80.697912,-0.66146 c 0.34178,-0.3638 0.68094,-0.66146 0.7537,-0.66146 0.0728,0 -0.14734,0.29766 -0.48912,0.66146 -0.34177,0.3638 -0.68094,0.66146 -0.7537,0.66146 -0.0728,0 0.14735,-0.29766 0.48912,-0.66146 z m -83.211453,-0.13229 c -0.333545,-0.14333 -0.38245,-0.22739 -0.132292,-0.22739 0.218281,0 0.635,0.10232 0.926042,0.22739 0.333544,0.14333 0.38245,0.22739 0.132291,0.22739 -0.218281,0 -0.635,-0.10233 -0.926041,-0.22739 z m 49.651147,-0.26459 c 0,-0.3638 0.06006,-0.51263 0.133454,-0.33073 0.0734,0.18191 0.0734,0.47956 0,0.66146 -0.0734,0.1819 -0.133454,0.0331 -0.133454,-0.33073 z m 53.404056,0.0156 c 0,-0.13693 0.1177,-0.32171 0.26155,-0.41062 0.14999,-0.0927 0.19434,0.0135 0.10399,0.24897 -0.17589,0.45837 -0.36554,0.54223 -0.36554,0.16165 z M 30.377472,291.52758 c 0.190995,-0.0764 0.419198,-0.067 0.507119,0.0209 0.08792,0.0879 -0.06835,0.15045 -0.347265,0.13896 -0.308227,-0.0127 -0.37092,-0.0754 -0.159854,-0.15985 z M 29.319139,291.263 c 0.190995,-0.0764 0.419198,-0.067 0.507119,0.0209 0.08792,0.0879 -0.06835,0.15045 -0.347266,0.13896 -0.308226,-0.0127 -0.370919,-0.0754 -0.159853,-0.15985 z m 94.791331,-0.23818 c 0.0127,-0.30823 0.0754,-0.37092 0.15985,-0.15986 0.0764,0.191 0.067,0.4192 -0.0209,0.50712 -0.0879,0.0879 -0.15045,-0.0684 -0.13896,-0.34726 z m -96.130784,-0.0209 c 0.181901,-0.0734 0.479557,-0.0734 0.661458,0 0.181901,0.0734 0.03307,0.13345 -0.330729,0.13345 -0.363802,0 -0.51263,-0.06 -0.330729,-0.13345 z m 88.701554,-1.14769 c 0.60919,-0.7276 1.16714,-1.32292 1.23991,-1.32292 0.0728,0 -0.36614,0.59532 -0.97532,1.32292 -0.60919,0.7276 -1.16714,1.32292 -1.2399,1.32292 -0.0728,0 0.36613,-0.59532 0.97531,-1.32292 z m -90.151727,0.87498 c 0.257432,-0.0671 0.614619,-0.0627 0.79375,0.01 0.179131,0.0725 -0.03149,0.12736 -0.468056,0.12197 -0.436562,-0.005 -0.583125,-0.0647 -0.325694,-0.13178 z m 54.998181,-0.52585 c -0.02773,-0.64771 -0.173123,-0.8679 -0.631344,-0.95616 l -0.595312,-0.11466 0.603615,-0.036 c 0.67937,-0.0405 0.949735,0.424 0.776256,1.33379 -0.09117,0.47814 -0.12518,0.42776 -0.153215,-0.22694 z m -69.419922,0.25749 c 0.329118,-0.0633 0.805368,-0.0609 1.058333,0.005 0.252965,0.0662 -0.01631,0.118 -0.598397,0.11506 -0.582084,-0.003 -0.789055,-0.0571 -0.459936,-0.1204 z m 12.564623,0.005 c 0.254661,-0.0666 0.67138,-0.0666 0.926041,0 0.254662,0.0666 0.0463,0.121 -0.463021,0.121 -0.509322,0 -0.717682,-0.0545 -0.46302,-0.121 z m -10.054167,-0.27494 c 0.545704,-0.0571 1.438672,-0.0571 1.984375,0 0.545703,0.0571 0.09922,0.10378 -0.992187,0.10378 -1.091406,0 -1.537891,-0.0467 -0.992188,-0.10378 z m 6.476391,0.002 c 0.469696,-0.0584 1.303134,-0.0594 1.852083,-0.002 0.548949,0.0573 0.164651,0.1051 -0.853995,0.10627 -1.018646,0.001 -1.467786,-0.0457 -0.998088,-0.10413 z m 102.819331,-1.6612 c 0,-1.0914 0.0467,-1.53789 0.10378,-0.99218 0.0571,0.5457 0.0571,1.43867 0,1.98437 -0.0571,0.5457 -0.10378,0.0992 -0.10378,-0.99219 z m -81.71291,1.32292 c 0.436562,-0.11108 1.091406,-0.20197 1.455208,-0.20197 0.590023,0 0.575736,0.0218 -0.132292,0.20197 -0.436562,0.11109 -1.091406,0.20198 -1.455208,0.20198 -0.590024,0 -0.575736,-0.0218 0.132292,-0.20198 z m 2.579687,-0.44697 c 0.254661,-0.0666 0.67138,-0.0666 0.926042,0 0.254661,0.0666 0.0463,0.121 -0.463021,0.121 -0.509323,0 -0.717682,-0.0544 -0.463021,-0.121 z m 1.852083,-0.26458 c 0.254662,-0.0666 0.67138,-0.0666 0.926042,0 0.254661,0.0665 0.0463,0.121 -0.463021,0.121 -0.509323,0 -0.717682,-0.0545 -0.463021,-0.121 z m 49.377185,-0.28064 c -0.329107,-0.41964 -0.319749,-0.429 0.0999,-0.0999 0.44073,0.34564 0.580887,0.56291 0.363125,0.56291 -0.05494,0 -0.2633,-0.20836 -0.463021,-0.46302 z m -46.532914,-0.0625 c 1.536184,-0.22793 4.133548,-0.3382 3.946702,-0.16757 -0.06063,0.0554 -1.300869,0.16431 -2.756077,0.24208 -1.912348,0.1022 -2.242415,0.0815 -1.190625,-0.0745 z m 28.909366,0.0711 c 0.402182,-0.0608 0.997495,-0.0592 1.322916,0.004 0.325422,0.0628 -0.0037,0.11256 -0.731242,0.11057 -0.727604,-0.002 -0.993857,-0.0534 -0.591674,-0.11418 z m -3.306191,-0.26647 c 0.475549,-0.0589 1.189924,-0.0577 1.5875,0.003 0.397576,0.0604 0.0085,0.10855 -0.864635,0.10707 -0.873125,-0.002 -1.198414,-0.0509 -0.722865,-0.10976 z M 54.702601,288.34 c 0.618464,-0.0557 1.630495,-0.0557 2.248959,0 0.618463,0.0557 0.112448,0.10129 -1.124479,0.10129 -1.236927,0 -1.742943,-0.0456 -1.12448,-0.10129 z m 15.750691,-10e-4 c 0.695616,-0.0547 1.767178,-0.054 2.381249,0.002 0.614074,0.0555 0.04493,0.10023 -1.264753,0.0994 -1.309687,-7.9e-4 -1.81211,-0.0462 -1.116496,-0.10088 z m -9.268399,-0.26679 c 1.273307,-0.0485 3.356901,-0.0485 4.630208,0 1.273307,0.0485 0.23151,0.0882 -2.315104,0.0882 -2.546615,0 -3.588411,-0.0397 -2.315104,-0.0882 z m 34.031352,-0.26602 c -0.329107,-0.41965 -0.319749,-0.429 0.0999,-0.0999 0.44073,0.34565 0.580888,0.56292 0.363125,0.56292 -0.05494,0 -0.2633,-0.20836 -0.463021,-0.46302 z m 23.317085,-0.19844 c 0.34177,-0.3638 0.68094,-0.66146 0.7537,-0.66146 0.0728,0 -0.14734,0.29766 -0.48912,0.66146 -0.34177,0.3638 -0.68094,0.66146 -0.7537,0.66146 -0.0728,0 0.14734,-0.29766 0.48912,-0.66146 z m -24.110835,-0.85989 c -0.329107,-0.41965 -0.319749,-0.42901 0.0999,-0.0999 0.44073,0.34564 0.580888,0.56292 0.363125,0.56292 -0.05494,0 -0.2633,-0.20836 -0.463021,-0.46302 z m 11.476975,0.009 c 0.40019,-0.0606 1.05503,-0.0606 1.45521,0 0.40018,0.0606 0.0728,0.11023 -0.7276,0.11023 -0.80037,0 -1.12779,-0.0496 -0.72761,-0.11023 z m -1.43867,-0.25581 c 0.191,-0.0764 0.4192,-0.067 0.50712,0.0209 0.0879,0.0879 -0.0684,0.15046 -0.34726,0.13897 -0.30823,-0.0127 -0.37092,-0.0754 -0.15986,-0.15985 z m 3.96875,0 c 0.191,-0.0764 0.4192,-0.067 0.50712,0.0209 0.0879,0.0879 -0.0684,0.15046 -0.34726,0.13897 -0.30823,-0.0127 -0.37092,-0.0754 -0.15986,-0.15985 z m 12.4675,-1.76158 c 0.9338,-1.1289 1.82476,-2.13101 1.97992,-2.2269 0.15516,-0.0959 -0.4819,0.74929 -1.4157,1.8782 -0.9338,1.1289 -1.82476,2.13101 -1.97992,2.2269 -0.15516,0.0959 0.4819,-0.74929 1.4157,-1.8782 z m -11.22726,1.41316 c 0.72736,-0.31255 1.1451,-0.31255 0.66145,0 -0.21828,0.14107 -0.57546,0.24994 -0.79375,0.24194 -0.26168,-0.01 -0.21662,-0.092 0.1323,-0.24194 z m 14.43749,-0.0267 c -0.0204,-0.48703 0.52748,-2.16218 0.66285,-2.02681 0.0496,0.0496 -0.0752,0.62123 -0.27748,1.27027 -0.20222,0.64904 -0.37564,0.98949 -0.38537,0.75654 z m -30.478535,-0.43636 c -0.329107,-0.41964 -0.319749,-0.429 0.0999,-0.0999 0.254662,0.19972 0.463021,0.40808 0.463021,0.46302 0,0.21776 -0.217273,0.0776 -0.562917,-0.36313 z m 41.030215,-0.7643 c -0.14599,-0.38398 -0.21634,-0.74725 -0.15634,-0.80725 0.06,-0.06 0.23574,0.25416 0.39052,0.69815 0.34406,0.98698 0.13638,1.08374 -0.23418,0.1091 z m -34.18817,-0.23742 c -0.543104,-0.36905 -0.987462,-0.72793 -0.987462,-0.79751 0,-0.0696 0.47625,0.18866 1.058332,0.57387 0.92423,0.61162 1.23661,0.89463 0.98746,0.89463 -0.039,0 -0.51523,-0.30194 -1.05833,-0.67099 z m -9.426468,-2.46694 c -1.17938,-1.58035 -2.144326,-3.01987 -2.144326,-3.19895 0,-0.46108 2.376966,-3.18812 2.77886,-3.18812 0.183335,0 0.653711,0.44649 1.045284,0.99219 l 0.711954,0.99219 -0.765963,-0.8599 c -0.42128,-0.47294 -0.887484,-0.85989 -1.036008,-0.85989 -0.35437,0 -2.469544,2.51326 -2.469544,2.93433 0,0.2841 0.647464,1.20683 3.649858,5.2016 0.355455,0.47295 0.585065,0.8599 0.510246,0.8599 -0.07482,0 -1.100981,-1.29301 -2.280361,-2.87335 z m 21.403588,2.75968 c 0,-0.0728 0.23813,-0.25974 0.52917,-0.4155 0.29104,-0.15576 0.52916,-0.22367 0.52916,-0.15091 0,0.0728 -0.23812,0.25974 -0.52916,0.4155 -0.29104,0.15576 -0.52917,0.22367 -0.52917,0.15091 z m -14.821949,-2.51731 c -0.803272,-0.70899 -2.092872,-2.04416 -2.865778,-2.96706 l -1.405287,-1.678 1.470769,1.5875 c 0.808921,0.87312 2.158052,2.20794 2.99807,2.96625 0.840015,0.75831 1.467771,1.37911 1.39501,1.37955 -0.07276,5.3e-4 -0.789514,-0.57926 -1.592784,-1.28824 z m 17.732369,0.70071 c 0,-0.0675 0.56,-0.58153 1.24444,-1.14238 0.68444,-0.56085 1.15904,-0.88154 1.05466,-0.71265 -0.22241,0.35986 -2.2991,2.03545 -2.2991,1.85503 z m 9.79796,0.0213 c -0.0143,-0.32223 1.62085,-2.06473 2.21072,-2.35589 0.30746,-0.15177 0.18055,0.0334 -0.28203,0.41142 -0.46258,0.37804 -1.08389,1.01278 -1.38068,1.41052 -0.29679,0.39775 -0.5434,0.63802 -0.54801,0.53395 z m 7.81375,-1.20851 c -0.93275,-1.11788 -0.95108,-1.16528 -0.17567,-0.45435 0.73461,0.67352 1.53987,1.73956 1.29254,1.71112 -0.0415,-0.005 -0.54409,-0.57032 -1.11687,-1.25677 z m -8.62994,-1.34964 c 0.74661,-0.92898 1.31548,-1.81503 1.26416,-1.969 -0.0513,-0.15396 -0.65555,-0.75648 -1.34272,-1.33891 l -1.24941,-1.05898 -2.57013,2.4988 -2.57013,2.4988 2.50832,-2.57968 c 1.37957,-1.41883 2.57729,-2.57969 2.66158,-2.57969 0.0843,0 0.79716,0.57669 1.58412,1.28155 1.40685,1.26006 1.42355,1.29222 0.996,1.91823 -0.23916,0.35017 -0.93084,1.17246 -1.53705,1.8273 -0.87263,0.94263 -0.81946,0.83881 0.25526,-0.49842 z m 4.84271,-0.47771 c 0.25466,-0.0666 0.67138,-0.0666 0.92604,0 0.25466,0.0666 0.0463,0.121 -0.46302,0.121 -0.50933,0 -0.71769,-0.0544 -0.46302,-0.121 z M 85.195829,255.48524 c -0.625618,-0.17687 -0.631446,-0.19502 -0.107574,-0.3349 0.542353,-0.14481 0.557556,-0.32074 0.730342,-8.45172 0.09705,-4.56711 0.252807,-11.59185 0.34612,-15.61053 l 0.169662,-7.30668 -1.458799,-0.18227 c -0.802338,-0.10025 -2.159841,-0.51846 -3.01667,-0.92938 -1.755847,-0.84205 -3.450265,-2.43477 -3.134236,-2.94612 0.123534,-0.19988 0.09426,-0.26117 -0.07482,-0.15667 -0.366572,0.22655 -0.597771,-0.42391 -0.597771,-1.68181 0,-1.32855 0.314529,-2.11396 1.292731,-3.22807 l 0.79901,-0.91002 -1.430526,0.11863 c -1.805122,0.14969 -2.528236,-0.0336 -3.560741,-0.90235 -1.136787,-0.95654 -1.627161,-2.02016 -1.639051,-3.55508 -0.03055,-3.94443 4.698071,-6.18553 7.626355,-3.61446 1.783553,1.56598 2.188048,3.91078 1.025416,5.94421 -0.35361,0.61846 -0.620067,1.12294 -0.592124,1.12106 0.02794,-0.002 0.805553,-0.24 1.728023,-0.52917 0.922472,-0.28916 2.028068,-0.52575 2.456883,-0.52575 h 0.779667 l -0.07563,-6.07477 c -0.07292,-5.85706 -0.05667,-6.08326 0.453533,-6.31189 0.418743,-0.18763 0.933939,0.0357 2.468911,1.07027 1.066859,0.71906 1.987227,1.2599 2.045264,1.20187 0.05804,-0.058 -0.187984,-1.05046 -0.546711,-2.2054 -0.358728,-1.15493 -0.654019,-2.35334 -0.656201,-2.66313 -0.0028,-0.39478 0.609348,-1.02788 2.046549,-2.11666 1.810239,-1.37138 1.973011,-1.56221 1.389062,-1.62849 -0.363802,-0.0413 -1.610357,-0.16035 -2.770121,-0.26458 l -2.108663,-0.18951 -0.847968,-2.24896 c -0.466384,-1.23693 -0.856938,-2.57638 -0.8679,-2.97656 -0.01863,-0.68003 -0.365132,-0.9777 -0.615976,-0.52917 -0.06104,0.10914 -0.04119,0.0199 0.0441,-0.19843 0.08529,-0.21829 0.187333,-5.56753 0.226761,-11.88721 0.05657,-9.06732 7.94e-4,-11.53534 -0.264583,-11.70376 -0.233841,-0.14842 -0.171053,-0.21466 0.206124,-0.21748 0.298317,-0.002 0.655505,-0.1124 0.79375,-0.24483 0.201342,-0.19287 25.743913,3.4845 28.363333,4.08348 0.53304,0.12189 0.5948,0.29474 0.59039,1.65244 -0.003,0.83397 -0.2329,4.67147 -0.51156,8.52777 -0.27865,3.8563 -0.42527,7.08455 -0.32581,7.17389 0.0995,0.0893 4.25256,1.26733 9.22912,2.61777 5.21976,1.41643 9.10424,2.60116 9.18053,2.79997 0.0727,0.18955 -1.71304,4.59881 -3.96839,9.79836 l -4.10064,9.45373 -4.23128,16.55574 c -5.11224,20.00266 -4.92595,19.33387 -5.38553,19.33387 -0.20256,0 -3.26509,-1.06174 -6.80563,-2.35942 -3.54054,-1.29768 -6.511,-2.27994 -6.60102,-2.18281 -0.09,0.0971 0.006,3.02101 0.21431,6.49751 0.20789,3.47649 0.27878,6.42009 0.15754,6.54134 -0.24445,0.24445 -15.670587,2.63138 -16.735363,2.58951 -0.368901,-0.0145 -0.968386,-0.11053 -1.332188,-0.21338 z m 5.442124,-33.12721 c 1.901492,-0.58185 3.307543,-1.59119 4.06349,-2.91698 1.806506,-3.16829 -1.295768,-6.40346 -6.79546,-7.08657 -2.54617,-0.31625 -4.212606,-0.0777 -6.076048,0.86967 -1.701638,0.86514 -3.248689,3.02261 -3.248689,4.53054 0,0.78452 0.821187,2.51911 1.432957,3.02684 0.227314,0.18865 0.356362,0.43513 0.286769,0.54774 -0.06959,0.1126 0.02101,0.19473 0.20135,0.1825 0.180335,-0.0122 0.895776,0.24595 1.589865,0.57373 2.488541,1.17517 5.302644,1.26492 8.545766,0.27253 z m -6.103582,-1.7865 c -2.04847,-0.93183 -2.127337,-1.73659 -0.276484,-2.82126 1.99277,-1.16784 4.627932,-0.72 6.025287,1.02398 0.685638,0.85572 0.578792,1.1316 -0.672963,1.73756 -1.435732,0.69502 -3.622667,0.72075 -5.07584,0.0597 z m -3.184512,-8.27515 c 1.6104,-1.91385 1.526527,-4.20421 -0.217842,-5.94858 -1.4239,-1.4239 -2.95561,-1.73723 -4.703767,-0.96221 -0.995016,0.44113 -2.17614,1.39149 -1.729359,1.39149 0.08315,0 -0.02133,0.41289 -0.232188,0.91754 -0.492718,1.17924 -0.487029,2.34787 0.01617,3.32094 0.219744,0.42494 0.368573,0.91948 0.330729,1.09898 -0.03785,0.1795 0.109784,0.33248 0.328065,0.33995 0.218281,0.007 0.694531,0.18616 1.058333,0.39709 0.87911,0.5097 2.865491,0.75232 3.767849,0.4602 0.398828,-0.12911 1.020734,-0.58604 1.382014,-1.0154 z m -1.974863,-1.68284 c -0.363802,-0.20797 -1.048411,-0.38235 -1.521354,-0.3875 -0.908785,-0.01 -1.918229,-0.78063 -1.918229,-1.46459 0,-0.50675 0.939964,-1.45521 1.442185,-1.45521 0.211119,0 1.004475,0.1331 1.763012,0.29578 2.164633,0.46423 3.250742,1.94174 2.199862,2.99262 -0.509709,0.50971 -1.097013,0.51535 -1.965476,0.0189 z m 18.917707,1.98043 c 2.334977,-1.43754 2.359707,-4.99118 0.04674,-6.71528 -1.029152,-0.76713 -3.290178,-0.77306 -4.310472,-0.0113 -2.306283,1.72188 -2.681904,4.37439 -0.875295,6.181 1.393881,1.39388 3.412969,1.60824 5.139023,0.54558 z m -5.250658,-2.06741 c -1.069869,-1.18219 -0.06916,-2.45554 2.319483,-2.95142 2.286809,-0.47474 3.640407,0.53097 2.682435,1.99302 -0.295155,0.45046 -0.668043,0.6485 -1.221065,0.6485 -0.437883,0 -1.223584,0.17859 -1.746004,0.39688 -1.2252,0.51192 -1.503624,0.50002 -2.034849,-0.087 z m -10.55511,44.48214 c 0.329118,-0.0633 0.805368,-0.0609 1.058333,0.005 0.252966,0.0662 -0.01632,0.118 -0.598397,0.11507 -0.582083,-0.003 -0.789054,-0.0571 -0.459936,-0.12041 z m -2.38125,-0.26459 c 0.329118,-0.0633 0.805368,-0.0609 1.058334,0.005 0.252965,0.0662 -0.01632,0.118 -0.598398,0.11506 -0.582083,-0.003 -0.789054,-0.0571 -0.459936,-0.1204 z m -2.38125,-0.26458 c 0.329118,-0.0633 0.805368,-0.0609 1.058334,0.005 0.252965,0.0662 -0.01632,0.11801 -0.598398,0.11507 -0.582083,-0.003 -0.789053,-0.0571 -0.459936,-0.12041 z m -2.645833,-0.26458 c 0.329118,-0.0633 0.805368,-0.0609 1.058333,0.005 0.252966,0.0662 -0.01632,0.118 -0.598397,0.11507 -0.582083,-0.003 -0.789054,-0.0571 -0.459936,-0.12041 z m -2.38125,-0.26459 c 0.329118,-0.0633 0.805368,-0.0609 1.058334,0.005 0.252965,0.0662 -0.01632,0.118 -0.598398,0.11506 -0.582083,-0.003 -0.789054,-0.0571 -0.459936,-0.1204 z M 69.69271,253.5063 c -0.07738,-0.20163 -0.09444,-0.88624 -0.03792,-1.52135 l 0.102762,-1.15475 0.04622,1.37309 0.04623,1.37309 0.992187,0.10379 0.992187,0.10378 -1.00049,0.0445 c -0.641746,0.0285 -1.050935,-0.087 -1.141171,-0.32213 z m 0.23296,-4.2636 c 0.0021,-0.7276 0.05337,-0.99386 0.114186,-0.59167 0.06082,0.40218 0.05919,0.99749 -0.0036,1.32291 -0.0628,0.32542 -0.112559,-0.004 -0.110575,-0.73124 z m 0.260972,-3.04271 c 0,-0.65484 0.0516,-0.92273 0.114662,-0.59531 0.06307,0.32742 0.06307,0.8632 0,1.19062 -0.06306,0.32743 -0.114662,0.0595 -0.114662,-0.59531 z m 0.268195,-3.04271 c 0.0021,-0.7276 0.05337,-0.99385 0.114186,-0.59167 0.06082,0.40218 0.05919,0.99749 -0.0036,1.32292 -0.0628,0.32542 -0.112559,-0.004 -0.110575,-0.73125 z M 56.44755,242.35212 c -0.08617,-0.22455 -0.08243,-0.48252 0.0083,-0.57326 0.09074,-0.0907 0.164978,0.0483 0.164978,0.30907 0,0.4781 0.419057,0.4835 1.984375,0.0256 0.291041,-0.0851 0.171979,0.0202 -0.264584,0.23413 -1.038018,0.50862 -1.699024,0.51019 -1.893072,0.004 z m -0.314111,-1.44379 c 0,-0.36381 0.06005,-0.51263 0.133453,-0.33073 0.0734,0.1819 0.0734,0.47955 0,0.66146 -0.0734,0.1819 -0.133453,0.0331 -0.133453,-0.33073 z m 14.585981,-0.66146 c 0.0021,-0.72761 0.05337,-0.99386 0.114186,-0.59168 0.06082,0.40219 0.05919,0.9975 -0.0036,1.32292 -0.0628,0.32542 -0.112559,-0.004 -0.110575,-0.73124 z m -7.616298,0.29456 c 0.436562,-0.19879 1.091406,-0.43446 1.455208,-0.52371 0.531241,-0.13033 0.505198,-0.0911 -0.132292,0.19917 -0.436562,0.19878 -1.091406,0.43446 -1.455208,0.52371 -0.531241,0.13033 -0.505198,0.0911 0.132292,-0.19917 z m -7.255153,-0.84578 c 0.0127,-0.30822 0.07539,-0.37092 0.159851,-0.15985 0.07643,0.19099 0.06703,0.4192 -0.02088,0.50712 -0.08792,0.0879 -0.150452,-0.0684 -0.138964,-0.34727 z M 19.182291,239.57959 C 10.87201,237.91155 5.284737,229.25118 3.191196,214.79312 2.2198614,208.08505 1.8683059,199.2952 2.3427739,193.58023 l 0.1840298,-2.21664 1.5771585,-1.46801 c 3.2055616,-2.98373 7.8348388,-5.5202 12.1135498,-6.63725 2.399221,-0.62636 5.761183,-0.98386 6.453248,-0.68622 0.264155,0.11361 0.718406,0.20681 1.009447,0.2071 0.366237,3.7e-4 0.396633,0.0333 0.09872,0.10709 -0.309571,0.0766 -0.474412,0.52979 -0.587018,1.61377 -0.08612,0.82897 -0.182157,13.51027 -0.213425,28.18066 -0.05351,25.10318 -0.08412,26.68805 -0.520067,26.92136 -0.53775,0.28779 -1.772459,0.27931 -3.276128,-0.0225 z m 5.230556,-0.44212 c 0.257431,-0.0671 0.614618,-0.0627 0.79375,0.01 0.179131,0.0725 -0.03149,0.12736 -0.468057,0.12197 -0.436562,-0.005 -0.583124,-0.0647 -0.325693,-0.13177 z m 1.466709,-0.26197 c 0.190996,-0.0764 0.419199,-0.067 0.507118,0.0209 0.08792,0.0879 -0.06835,0.15045 -0.347265,0.13896 -0.308225,-0.0127 -0.37092,-0.0754 -0.159853,-0.15985 z m 29.724716,-0.34842 c 0,-0.36381 0.06005,-0.51263 0.133454,-0.33073 0.0734,0.1819 0.0734,0.47955 0,0.66146 -0.0734,0.1819 -0.133454,0.0331 -0.133454,-0.33073 z m -28.484482,0 c 0.727364,-0.31256 1.145109,-0.31256 0.661459,0 -0.218282,0.14106 -0.575469,0.24993 -0.79375,0.24193 -0.261689,-0.01 -0.216625,-0.092 0.132291,-0.24193 z m 42.068748,-0.12298 c 0.899925,-0.43346 1.368245,-0.49637 1.546619,-0.20775 0.06745,0.10914 -0.133879,0.20429 -0.447405,0.21144 -0.313526,0.007 -0.867703,0.0953 -1.231505,0.19581 -0.522775,0.14449 -0.495038,0.10265 0.132291,-0.1995 z m -40.856075,-0.23806 c 0.06063,-0.0531 0.4079,-0.23821 0.771702,-0.41147 0.623695,-0.29703 0.632137,-0.29153 0.147868,0.0965 -0.421481,0.33768 -1.282663,0.63269 -0.91957,0.31502 z m 26.98634,-0.85164 c 0.0127,-0.30822 0.07539,-0.37092 0.15985,-0.15985 0.07643,0.19099 0.06703,0.4192 -0.02088,0.50712 -0.08792,0.0879 -0.150453,-0.0683 -0.138965,-0.34727 z m -25.420888,0.0618 c 0,-0.0611 0.312317,-0.31581 0.694034,-0.56592 0.38172,-0.25011 0.613214,-0.32398 0.514432,-0.16414 -0.18877,0.30543 -1.208466,0.92145 -1.208466,0.73006 z m 25.177191,-1.23036 c 0,-0.36381 0.06005,-0.51263 0.133453,-0.33073 0.0734,0.1819 0.0734,0.47955 0,0.66146 -0.0734,0.1819 -0.133453,0.0331 -0.133453,-0.33073 z m -21.993563,-1.43438 c 0.805111,-0.88458 1.734418,-1.96552 2.065128,-2.40208 0.427469,-0.56429 0.513864,-0.61413 0.298858,-0.17241 -0.166336,0.34174 -1.095642,1.42268 -2.065126,2.40209 -1.708433,1.72592 -1.717632,1.73123 -0.29886,0.1724 z m 21.728979,0.11146 c 0,-0.3638 0.06005,-0.51263 0.133454,-0.33073 0.0734,0.1819 0.0734,0.47956 0,0.66146 -0.0734,0.1819 -0.133454,0.0331 -0.133454,-0.33073 z m -0.285469,-1.21267 c 0.0127,-0.30823 0.07539,-0.37092 0.15985,-0.15986 0.07643,0.191 0.06703,0.4192 -0.02087,0.50712 -0.08792,0.0879 -0.150453,-0.0684 -0.138965,-0.34726 z m -0.243697,-1.16858 c 0,-0.3638 0.06005,-0.51263 0.133453,-0.33073 0.0734,0.1819 0.0734,0.47956 0,0.66146 -0.0734,0.1819 -0.133453,0.0331 -0.133453,-0.33073 z m -0.28547,-1.21267 c 0.0127,-0.30823 0.07539,-0.37092 0.159851,-0.15986 0.07643,0.191 0.06703,0.4192 -0.02088,0.50712 -0.08792,0.0879 -0.150452,-0.0683 -0.138964,-0.34726 z m -18.012554,-0.37483 c 0.15576,-0.29104 0.342733,-0.52917 0.415493,-0.52917 0.07276,0 0.0048,0.23813 -0.15091,0.52917 -0.15576,0.29104 -0.342733,0.52917 -0.415494,0.52917 -0.07276,0 -0.0048,-0.23813 0.150911,-0.52917 z m 17.768857,-0.79375 c 0,-0.3638 0.06005,-0.51263 0.133453,-0.33073 0.0734,0.1819 0.0734,0.47956 0,0.66146 -0.0734,0.1819 -0.133453,0.0331 -0.133453,-0.33073 z M 36.961073,229.1377 c 0.242009,-0.5075 0.486987,-0.87575 0.544396,-0.81834 0.121036,0.12104 -0.682149,1.74106 -0.863193,1.74106 -0.06667,0 0.07679,-0.41522 0.318797,-0.92272 z m 16.526533,-0.4002 c 0,-0.3638 0.06005,-0.51263 0.133453,-0.33073 0.0734,0.18191 0.0734,0.47956 0,0.66146 -0.0734,0.1819 -0.133453,0.0331 -0.133453,-0.33073 z m -0.28547,-1.21267 c 0.0127,-0.30823 0.07539,-0.37092 0.159851,-0.15985 0.07643,0.19099 0.06703,0.4192 -0.02088,0.50712 -0.08792,0.0879 -0.150452,-0.0684 -0.138964,-0.34727 z M 37.843519,227.2823 c 0,-0.14553 0.115414,-0.44318 0.256479,-0.66146 0.141065,-0.21828 0.256479,-0.27782 0.256479,-0.13229 0,0.14552 -0.115414,0.44317 -0.256479,0.66145 -0.141065,0.21828 -0.256479,0.27782 -0.256479,0.1323 z m 15.11492,-0.92605 c 0,-0.3638 0.06005,-0.51263 0.133453,-0.33073 0.0734,0.18191 0.0734,0.47956 0,0.66146 -0.0734,0.1819 -0.133453,0.0331 -0.133453,-0.33073 z m -14.440685,-0.85989 c 0.507862,-1.6011 1.133168,-3.21097 1.150411,-2.96179 0.02643,0.382 -1.056666,3.5571 -1.213411,3.5571 -0.06921,0 -0.04086,-0.26789 0.063,-0.59531 z m 14.155216,-0.35278 c 0.0127,-0.30823 0.07539,-0.37092 0.15985,-0.15985 0.07643,0.19099 0.06703,0.4192 -0.02087,0.50712 -0.08792,0.0879 -0.150453,-0.0684 -0.138965,-0.34727 z M 52.429272,223.975 c 0,-0.3638 0.06006,-0.51263 0.133454,-0.33073 0.0734,0.18191 0.0734,0.47956 0,0.66146 -0.0734,0.1819 -0.133454,0.0331 -0.133454,-0.33073 z m -0.264583,-1.32291 c 0,-0.36381 0.06005,-0.51263 0.133453,-0.33073 0.0734,0.1819 0.0734,0.47956 0,0.66146 -0.0734,0.1819 -0.133453,0.0331 -0.133453,-0.33073 z M 39.708387,221.704 c 0.0127,-0.30823 0.07539,-0.37092 0.159851,-0.15986 0.07643,0.191 0.06703,0.4192 -0.02088,0.50712 -0.08792,0.0879 -0.150453,-0.0684 -0.138965,-0.34726 z m 12.170833,-0.2646 c 0.0127,-0.30822 0.07539,-0.37092 0.15985,-0.15985 0.07643,0.191 0.06703,0.4192 -0.02088,0.50712 -0.08792,0.0879 -0.150453,-0.0683 -0.138965,-0.34727 z m -11.90625,-0.79375 c 0.0127,-0.30822 0.07539,-0.37091 0.159851,-0.15985 0.07643,0.191 0.06703,0.4192 -0.02088,0.50712 -0.08792,0.0879 -0.150452,-0.0684 -0.138964,-0.34727 z m 11.662553,-0.37482 c 0,-0.3638 0.06005,-0.51263 0.133453,-0.33073 0.0734,0.1819 0.0734,0.47956 0,0.66146 -0.0734,0.1819 -0.133453,0.0331 -0.133453,-0.33073 z m -11.397969,-0.68351 c 0.0127,-0.30823 0.07539,-0.37092 0.15985,-0.15985 0.07643,0.19099 0.06703,0.4192 -0.02088,0.50712 -0.08792,0.0879 -0.150453,-0.0684 -0.138965,-0.34727 z m 11.112499,-0.52917 c 0.0127,-0.30822 0.07539,-0.37091 0.159851,-0.15985 0.07643,0.191 0.06703,0.4192 -0.02088,0.50712 -0.08792,0.0879 -0.150453,-0.0683 -0.138964,-0.34727 z m -10.847916,-0.52916 c 0.0127,-0.30823 0.07539,-0.37092 0.159851,-0.15986 0.07643,0.191 0.06703,0.4192 -0.02088,0.50712 -0.08792,0.0879 -0.150453,-0.0684 -0.138965,-0.34726 z m 10.604219,-0.63941 c 0,-0.3638 0.06005,-0.51263 0.133453,-0.33073 0.0734,0.1819 0.0734,0.47956 0,0.66146 -0.0734,0.1819 -0.133453,0.0331 -0.133453,-0.33073 z m -10.31875,-0.79375 c 0,-0.3638 0.06006,-0.51263 0.133454,-0.33073 0.0734,0.1819 0.0734,0.47956 0,0.66146 -0.0734,0.1819 -0.133454,0.0331 -0.133454,-0.33073 z m 10.03328,-0.41893 c 0.0127,-0.30822 0.07539,-0.37091 0.159851,-0.15985 0.07643,0.191 0.06703,0.4192 -0.02088,0.50712 -0.08792,0.0879 -0.150452,-0.0684 -0.138964,-0.34727 z m -9.768696,-0.90399 c 0,-0.3638 0.06005,-0.51263 0.133453,-0.33073 0.0734,0.1819 0.0734,0.47956 0,0.66146 -0.0734,0.1819 -0.133453,0.0331 -0.133453,-0.33073 z m 9.504113,-0.41892 c 0.0127,-0.30823 0.07539,-0.37092 0.159851,-0.15986 0.07643,0.191 0.06703,0.4192 -0.02088,0.50712 -0.08792,0.0879 -0.150453,-0.0683 -0.138964,-0.34726 z m -9.229725,-1.30087 c 0.0054,-0.43656 0.06469,-0.58313 0.131774,-0.3257 0.06708,0.25744 0.06267,0.61462 -0.0098,0.79375 -0.07248,0.17914 -0.127363,-0.0315 -0.121971,-0.46805 z m 8.986028,0.13229 c 0,-0.3638 0.06005,-0.51263 0.133453,-0.33073 0.0734,0.1819 0.0734,0.47956 0,0.66146 -0.0734,0.1819 -0.133453,0.0331 -0.133453,-0.33073 z m -0.28547,-1.21267 c 0.0127,-0.30823 0.07539,-0.37092 0.159851,-0.15986 0.07643,0.191 0.06703,0.4192 -0.02088,0.50712 -0.08792,0.0879 -0.150452,-0.0683 -0.138964,-0.34726 z m -8.426171,-0.904 c 0,-0.50932 0.05445,-0.71768 0.121002,-0.46302 0.06655,0.25466 0.06655,0.67138 0,0.92604 -0.06655,0.25467 -0.121002,0.0463 -0.121002,-0.46302 z m 8.182474,-0.26458 c 0,-0.3638 0.06005,-0.51263 0.133453,-0.33073 0.0734,0.1819 0.0734,0.47956 0,0.66146 -0.0734,0.1819 -0.133453,0.0331 -0.133453,-0.33073 z m -0.285469,-1.21267 c 0.0127,-0.30823 0.07539,-0.37092 0.15985,-0.15986 0.07643,0.191 0.06703,0.4192 -0.02088,0.50712 -0.08792,0.0879 -0.150453,-0.0684 -0.138965,-0.34726 z m -7.621743,-0.904 c 0,-0.65484 0.0516,-0.92273 0.114662,-0.59531 0.06307,0.32742 0.06307,0.8632 0,1.19063 -0.06306,0.32742 -0.114662,0.0595 -0.114662,-0.59532 z m 7.378046,-0.26458 c 0,-0.3638 0.06006,-0.51263 0.133453,-0.33073 0.0734,0.1819 0.0734,0.47956 0,0.66146 -0.0734,0.1819 -0.133453,0.0331 -0.133453,-0.33073 z m -0.28547,-1.21267 c 0.0127,-0.30823 0.07539,-0.37092 0.159851,-0.15985 0.07643,0.19099 0.06703,0.41919 -0.02088,0.50711 -0.08792,0.0879 -0.150453,-0.0684 -0.138964,-0.34726 z m -6.81537,-1.96233 c 0,-0.94588 0.04802,-1.33284 0.106715,-0.85989 0.05869,0.47294 0.05869,1.24684 0,1.71979 -0.05869,0.47294 -0.106715,0.086 -0.106715,-0.8599 z m 6.16571,0.12206 c -0.255318,-0.66534 -0.179999,-0.83702 0.131902,-0.30065 0.154435,0.26557 0.225055,0.5386 0.156933,0.60672 -0.06812,0.0681 -0.198099,-0.0696 -0.288835,-0.30607 z m -0.529167,-1.32291 c -0.255318,-0.66535 -0.179999,-0.83703 0.131903,-0.30066 0.154434,0.26558 0.225054,0.5386 0.156932,0.60672 -0.06812,0.0681 -0.198099,-0.0696 -0.288835,-0.30606 z m -0.529167,-1.32292 c -0.255317,-0.66534 -0.179998,-0.83702 0.131903,-0.30066 0.154435,0.26558 0.225055,0.53861 0.156932,0.60673 -0.06812,0.0681 -0.198098,-0.0696 -0.288835,-0.30607 z m -4.819769,-4.61998 c 0,-2.40109 0.04011,-3.38336 0.08914,-2.18281 0.04902,1.20055 0.04902,3.16508 0,4.36562 -0.04903,1.20055 -0.08914,0.21829 -0.08914,-2.18281 z m 4.290603,3.29706 c -0.255318,-0.66534 -0.179999,-0.83702 0.131902,-0.30065 0.154435,0.26557 0.225055,0.5386 0.156933,0.60672 -0.06812,0.0681 -0.198099,-0.0696 -0.288835,-0.30607 z m 34.974994,0.22637 c 0.190994,-0.0764 0.4192,-0.067 0.507119,0.0209 0.08792,0.0879 -0.06835,0.15046 -0.347266,0.13897 -0.308226,-0.0127 -0.370919,-0.0754 -0.159853,-0.15985 z m -35.504161,-1.54928 c -0.255318,-0.66535 -0.179999,-0.83702 0.131903,-0.30066 0.154434,0.26558 0.225054,0.5386 0.156932,0.60672 -0.06812,0.0681 -0.198099,-0.0696 -0.288835,-0.30606 z m -0.529167,-1.32292 c -0.255317,-0.66534 -0.179998,-0.83702 0.131903,-0.30066 0.154435,0.26558 0.225055,0.53861 0.156932,0.60673 -0.06812,0.0681 -0.198098,-0.0696 -0.288835,-0.30607 z m -0.529166,-1.32292 c -0.255318,-0.66534 -0.179999,-0.83702 0.131902,-0.30065 0.154435,0.26557 0.225055,0.5386 0.156933,0.60672 -0.06812,0.0681 -0.198099,-0.0696 -0.288835,-0.30607 z m -0.529167,-1.32291 c -0.255318,-0.66535 -0.179999,-0.83702 0.131903,-0.30066 0.154434,0.26558 0.225054,0.5386 0.156932,0.60673 -0.06812,0.0681 -0.198099,-0.0696 -0.288835,-0.30607 z m -0.529167,-1.32292 c -0.255317,-0.66534 -0.179998,-0.83702 0.131903,-0.30066 0.154435,0.26558 0.225055,0.53861 0.156932,0.60673 -0.06812,0.0681 -0.198098,-0.0696 -0.288835,-0.30607 z m -0.529166,-1.32292 c -0.255318,-0.66534 -0.179999,-0.83702 0.131903,-0.30065 0.154434,0.26557 0.225054,0.5386 0.156932,0.60672 -0.06812,0.0681 -0.198099,-0.0696 -0.288835,-0.30607 z m 35.784603,-0.58508 c -0.329107,-0.41964 -0.319749,-0.429 0.0999,-0.0999 0.254661,0.19973 0.463021,0.40808 0.463021,0.46303 0,0.21776 -0.217273,0.0776 -0.562917,-0.36313 z m -36.3169,-0.74599 c -0.143891,-0.37497 -0.231444,-0.38615 -0.607737,-0.0776 -0.392123,0.32157 -0.42204,0.29234 -0.27686,-0.27058 0.131887,-0.51138 -0.121412,-0.93803 -1.335199,-2.24896 l -1.497965,-1.61785 1.415122,1.32292 1.415121,1.32292 -0.147886,-0.92604 -0.147887,-0.92605 0.366496,0.79375 c 0.201573,0.43657 0.371867,0.94677 0.378431,1.13379 0.0066,0.18702 0.206655,0.63722 0.444648,1.00045 0.237993,0.36322 0.371763,0.72135 0.29727,0.79585 -0.0745,0.0745 -0.211095,-0.0617 -0.303554,-0.30264 z m 35.381172,5.3e-4 c -0.258461,-0.67354 0.281913,-0.94685 1.66017,-0.83966 l 1.293683,0.1006 -1.419921,0.0477 c -1.279157,0.043 -1.406202,0.10015 -1.281541,0.57686 0.163677,0.6259 -0.02355,0.71085 -0.252391,0.11451 z m -36.407327,-3.85151 c 0.179478,-0.18082 0.39297,-0.26211 0.474433,-0.18065 0.08146,0.0815 -0.06538,0.22941 -0.326319,0.32877 -0.377084,0.14358 -0.407474,0.11319 -0.148114,-0.14812 z m -3.526456,-0.82699 -0.504029,-0.59531 0.595313,0.50403 c 0.327422,0.27721 0.595312,0.5451 0.595312,0.59531 0,0.21173 -0.212934,0.0554 -0.686596,-0.50403 z m -1.640864,-1.10571 c -1.228963,-0.86896 -1.401921,-1.11732 -0.364177,-0.52294 0.484131,0.2773 1.004726,0.653 1.156877,0.8349 0.391017,0.46748 0.207507,0.39526 -0.7927,-0.31196 z m 12.105076,-0.43556 c 1.230344,-0.42561 2.361438,-0.76487 2.513542,-0.75391 0.152103,0.0109 -0.730097,0.36814 -1.960441,0.79375 -1.230344,0.4256 -2.361438,0.76487 -2.513542,0.75391 -0.152103,-0.0109 0.730097,-0.36814 1.960441,-0.79375 z m -15.333865,-1.43529 c -0.945886,-0.4952 -1.6271,-0.90614 -1.513808,-0.9132 0.281252,-0.0175 3.365891,1.55028 3.365891,1.71076 0,0.17783 0.06204,0.20455 -1.852083,-0.79756 z m -4.812109,-1.90053 c 0.190994,-0.0764 0.419197,-0.067 0.507118,0.0209 0.08792,0.0879 -0.06835,0.15045 -0.347265,0.13896 -0.308226,-0.0127 -0.37092,-0.0754 -0.159853,-0.15985 z m 30.212107,0.0768 c 0,-0.0572 0.184777,-0.17489 0.410618,-0.26155 0.235458,-0.0904 0.341662,-0.046 0.248967,0.10399 -0.155379,0.2514 -0.659585,0.37185 -0.659585,0.15756 z m -31.551561,-0.33582 c 0.181902,-0.0734 0.479558,-0.0734 0.661459,0 0.181901,0.0734 0.03307,0.13345 -0.330729,0.13345 -0.363802,0 -0.512631,-0.06 -0.33073,-0.13345 z m -1.848998,-0.27649 c 0.329119,-0.0633 0.805369,-0.0609 1.058334,0.005 0.252965,0.0662 -0.01633,0.11801 -0.598398,0.11507 -0.582083,-0.003 -0.789054,-0.0571 -0.459936,-0.12041 z m 34.016546,-2.85558 c 0.0011,-1.01864 0.049,-1.40294 0.106273,-0.85399 0.05727,0.54895 0.05631,1.38239 -0.0021,1.85208 -0.05847,0.4697 -0.10533,0.0206 -0.104156,-0.99809 z m -0.264583,-4.49791 c 0.0011,-1.01865 0.049,-1.40295 0.106273,-0.854 0.05727,0.54895 0.05631,1.38239 -0.0021,1.85209 -0.05847,0.46969 -0.105331,0.0205 -0.104156,-0.99809 z m -0.264583,-4.49792 c 0.0011,-1.01864 0.04899,-1.40294 0.106272,-0.85399 0.05728,0.54895 0.05631,1.38238 -0.0021,1.85208 -0.05847,0.4697 -0.105331,0.0206 -0.104156,-0.99809 z M 58.7688,167.8701 c -0.03984,-0.85874 0.419648,-1.31823 1.278385,-1.27838 0.627819,0.0291 0.619701,0.0431 -0.116848,0.20065 -0.606584,0.12978 -0.831107,0.3543 -0.960882,0.96088 -0.157586,0.73655 -0.171524,0.74467 -0.200655,0.11685 z m 2.685711,-1.49304 c 0.257432,-0.0671 0.614619,-0.0627 0.79375,0.01 0.179131,0.0725 -0.03149,0.12736 -0.468056,0.12197 -0.436562,-0.005 -0.583125,-0.0647 -0.325694,-0.13177 z m 1.847048,-0.26361 c 0.254662,-0.0666 0.671381,-0.0666 0.926042,0 0.254661,0.0666 0.0463,0.121 -0.463021,0.121 -0.509323,0 -0.717682,-0.0545 -0.463021,-0.121 z m 1.852084,-0.26459 c 0.254661,-0.0666 0.67138,-0.0666 0.926041,0 0.254662,0.0666 0.0463,0.121 -0.463021,0.121 -0.509322,0 -0.717682,-0.0545 -0.46302,-0.121 z m 2.121701,-0.26555 c 0.257432,-0.0671 0.614619,-0.0627 0.79375,0.01 0.179131,0.0725 -0.03149,0.12736 -0.468056,0.12197 -0.436562,-0.005 -0.583125,-0.0647 -0.325694,-0.13177 z m 1.852083,-0.26458 c 0.257432,-0.0671 0.61462,-0.0627 0.79375,0.01 0.179131,0.0725 -0.03149,0.12736 -0.468055,0.12197 -0.436563,-0.005 -0.583126,-0.0647 -0.325695,-0.13178 z m 1.847049,-0.26362 c 0.254661,-0.0666 0.67138,-0.0666 0.926041,0 0.254662,0.0665 0.0463,0.121 -0.463021,0.121 -0.509322,0 -0.717682,-0.0545 -0.46302,-0.121 z m 1.852083,-0.26458 c 0.254661,-0.0665 0.67138,-0.0665 0.926042,0 0.254661,0.0666 0.0463,0.121 -0.463021,0.121 -0.509323,0 -0.717683,-0.0545 -0.463021,-0.121 z m 2.121701,-0.26555 c 0.257432,-0.0671 0.61462,-0.0627 0.79375,0.01 0.179131,0.0725 -0.03149,0.12736 -0.468055,0.12197 -0.436563,-0.005 -0.583126,-0.0647 -0.325695,-0.13178 z m 1.847049,-0.26362 c 0.254661,-0.0666 0.67138,-0.0666 0.926041,0 0.254662,0.0666 0.0463,0.121 -0.46302,0.121 -0.509323,0 -0.717683,-0.0545 -0.463021,-0.121 z m 1.852083,-0.26458 c 0.254661,-0.0666 0.67138,-0.0666 0.926042,0 0.254661,0.0666 0.0463,0.121 -0.463021,0.121 -0.509323,0 -0.717682,-0.0545 -0.463021,-0.121 z m 2.121702,-0.26555 c 0.257431,-0.0671 0.614619,-0.0627 0.79375,0.01 0.17913,0.0725 -0.03149,0.12736 -0.468056,0.12197 -0.436563,-0.005 -0.583126,-0.0647 -0.325694,-0.13177 z m 1.847048,-0.26362 c 0.254661,-0.0666 0.67138,-0.0666 0.926041,0 0.254662,0.0666 0.0463,0.121 -0.46302,0.121 -0.509323,0 -0.717683,-0.0544 -0.463021,-0.121 z m 1.852083,-0.26458 c 0.254661,-0.0666 0.67138,-0.0666 0.926042,0 0.254661,0.0665 0.0463,0.121 -0.463021,0.121 -0.509323,0 -0.717682,-0.0545 -0.463021,-0.121 z"
         id="path4612"
         inkscape:connector-curvature="0" />
      <path
         style="fill:#db6755;stroke-width:0.26458332"
         d="m 36.512498,296.73541 c 0,-0.14552 0.119063,-0.26459 0.264584,-0.26459 0.14552,0 0.264583,0.11907 0.264583,0.26459 0,0.14552 -0.119063,0.26458 -0.264583,0.26458 -0.145521,0 -0.264584,-0.11906 -0.264584,-0.26458 z m 49.401849,-42.79636 c 0.09444,-2.26835 0.606724,-26.64339 0.605394,-28.80549 l -9.95e-4,-1.61956 -1.355405,-0.1798 c -2.904426,-0.38529 -5.414348,-1.82219 -6.334934,-3.62669 -0.897284,-1.75882 -0.564843,-3.65959 0.85023,-4.86127 0.622276,-0.52843 0.622313,-0.52843 0.191286,5.3e-4 -0.709131,0.87042 -1.288677,2.17813 -1.288677,2.90782 0,1.08999 0.981297,2.7216 2.142956,3.5631 1.649105,1.19461 3.490793,1.71455 5.926835,1.67324 8.476999,-0.14373 11.697419,-6.59461 4.854551,-9.72423 -0.835675,-0.38221 -2.236443,-0.75306 -3.174999,-0.84058 l -1.679552,-0.15663 0.07556,-6.37448 c 0.05213,-4.39768 0.168743,-6.43207 0.37605,-6.56019 0.165272,-0.10214 1.182748,0.40963 2.261063,1.13726 1.078312,0.72764 2.008049,1.2755 2.066086,1.21746 0.05804,-0.058 -0.187984,-1.05046 -0.546711,-2.20539 -0.358728,-1.15493 -0.654019,-2.35334 -0.656201,-2.66313 -0.0028,-0.39478 0.609348,-1.02789 2.046549,-2.11667 l 2.050521,-1.55331 -2.513542,-0.21953 c -1.382448,-0.12074 -2.641936,-0.25799 -2.79886,-0.305 -0.156924,-0.047 -0.66938,-1.15914 -1.138788,-2.47141 l -0.853472,-2.38593 0.0208,-12.38736 c 0.01581,-9.40908 0.09877,-12.46218 0.345048,-12.69852 0.249375,-0.23932 3.500763,0.17261 14.08256,1.78418 7.56709,1.15244 14.02623,2.15661 14.35365,2.23148 0.53304,0.12189 0.5948,0.29474 0.59039,1.65244 -0.003,0.83397 -0.2329,4.67147 -0.51156,8.52777 -0.27865,3.8563 -0.42527,7.08455 -0.32581,7.17389 0.0995,0.0893 4.25256,1.26733 9.22912,2.61777 5.21976,1.41643 9.10424,2.60116 9.18053,2.79997 0.0727,0.18955 -1.71304,4.59881 -3.96839,9.79836 l -4.10064,9.45373 -4.23128,16.55574 c -5.11224,20.00266 -4.92595,19.33387 -5.38553,19.33387 -0.20256,0 -3.26509,-1.06174 -6.80563,-2.35942 -3.54054,-1.29768 -6.511,-2.27994 -6.60102,-2.18281 -0.09,0.0971 0.006,3.02101 0.21431,6.49751 0.20789,3.47649 0.27878,6.42009 0.15754,6.54134 -0.22625,0.22625 -15.522061,2.61588 -16.744009,2.61588 -0.669693,0 -0.678318,-0.0254 -0.605021,-1.78594 z m 12.378356,-41.34508 c 2.334977,-1.43754 2.359707,-4.99118 0.04674,-6.71528 -1.029152,-0.76713 -3.290178,-0.77306 -4.310472,-0.0113 -2.306283,1.72188 -2.681904,4.37439 -0.875295,6.181 1.393881,1.39388 3.412969,1.60824 5.139023,0.54558 z m -5.250658,-2.06741 c -1.069869,-1.18219 -0.06916,-2.45554 2.319483,-2.95142 2.286809,-0.47474 3.640407,0.53097 2.682435,1.99302 -0.295155,0.45046 -0.668043,0.6485 -1.221065,0.6485 -0.437883,0 -1.223584,0.17859 -1.746004,0.39688 -1.2252,0.51192 -1.503624,0.50002 -2.034849,-0.087 z M 19.182291,239.57959 C 10.87201,237.91155 5.284737,229.25118 3.191196,214.79312 2.2198614,208.08505 1.8683059,199.2952 2.3427739,193.58023 l 0.1840298,-2.21664 1.5771585,-1.46801 c 4.524642,-4.21152 11.2954538,-7.17915 16.6210068,-7.28494 l 2.161488,-0.0429 -0.01112,2.24896 c -0.0061,1.23693 -0.04982,14.05852 -0.09711,28.49243 -0.09445,28.82697 0.05006,26.57241 -1.69934,26.51191 -0.461041,-0.0159 -1.314506,-0.12458 -1.896589,-0.24141 z m 65.35208,-19.00806 c -2.04847,-0.93183 -2.127337,-1.73659 -0.276484,-2.82126 1.99277,-1.16784 4.627932,-0.72 6.025287,1.02398 0.685638,0.85572 0.578792,1.1316 -0.672963,1.73756 -1.435732,0.69502 -3.622667,0.72075 -5.07584,0.0597 z m -8.61968,-7.5169 c -0.491001,-0.33088 -1.173988,-1.01549 -1.517751,-1.52135 -0.523499,-0.77034 -0.607597,-1.16877 -0.517734,-2.45282 0.08794,-1.25648 0.241618,-1.66222 0.851834,-2.24895 l 0.74454,-0.71589 -0.583562,0.81928 c -1.883222,2.64391 -0.247153,6.00249 3.15782,6.48248 l 1.192866,0.16816 -1.217644,0.0353 c -0.871162,0.0253 -1.471668,-0.13583 -2.110369,-0.56626 z m 3.460305,-2.44109 c -0.363802,-0.20797 -1.048411,-0.38235 -1.521354,-0.3875 -0.908785,-0.01 -1.918229,-0.78063 -1.918229,-1.46459 0,-0.50675 0.939964,-1.45521 1.442185,-1.45521 0.211119,0 1.004475,0.1331 1.763012,0.29578 2.164633,0.46423 3.250742,1.94174 2.199862,2.99262 -0.509709,0.50971 -1.097013,0.51535 -1.965476,0.0189 z"
         id="path4610"
         inkscape:connector-curvature="0" />
      <path
         style="fill:#9d658e;stroke-width:0.26458332"
         d="m 85.900653,255.24033 c 0.04891,-0.1938 0.111426,-2.69411 0.138924,-5.55625 0.03811,-3.96618 0.08732,-4.63752 0.206905,-2.82263 0.0863,1.30969 0.136453,-1.54781 0.111461,-6.35 -0.02911,-5.59321 0.02721,-7.87542 0.156702,-6.35 0.170783,2.01181 0.186933,1.80657 0.104092,-1.32292 -0.05393,-2.03729 -0.09849,-4.96875 -0.09902,-6.51435 l -9.68e-4,-2.81018 -1.355405,-0.1798 c -2.904426,-0.38529 -5.414348,-1.82219 -6.334934,-3.62669 -0.897284,-1.75882 -0.564843,-3.65959 0.85023,-4.86127 0.622276,-0.52843 0.622313,-0.52843 0.191286,5.3e-4 -0.237114,0.29105 -0.624067,0.91021 -0.859896,1.37593 -1.493562,2.94948 1.515012,6.16374 6.38424,6.82069 1.27245,0.17168 1.390816,0.24641 1.409951,0.89019 0.01246,0.41951 0.08178,0.54281 0.171963,0.3059 0.213934,-0.562 0.623885,-0.78503 1.451547,-0.7897 0.395097,-0.002 1.288065,-0.19388 1.984375,-0.42589 4.107761,-1.36873 6.038257,-4.38908 4.599058,-7.19547 -0.678809,-1.32365 -1.467908,-2.01388 -3.218751,-2.81544 -1.497917,-0.68567 -4.744498,-1.3019 -4.744498,-0.90044 0,0.12143 -0.0893,0.22088 -0.198437,0.22099 -0.109141,1.1e-4 -0.141811,-2.94668 -0.0726,-6.54844 0.122486,-6.37415 0.129831,-6.44642 0.275682,-2.71218 l 0.149845,3.83646 0.05505,-3.50573 c 0.03384,-2.15512 0.158329,-3.50573 0.323138,-3.50573 0.14745,0 1.156801,0.61784 2.243003,1.37297 1.086202,0.75513 2.056492,1.29139 2.1562,1.19168 0.09971,-0.0997 -0.181035,-1.40215 -0.623871,-2.89432 -0.936257,-3.15479 -1.039133,-2.87401 1.833142,-5.00331 2.516116,-1.86528 2.420016,-2.07535 -0.949378,-2.07535 -1.884572,0 -2.832452,-0.1045 -3.02224,-0.33318 -0.4405,-0.53077 -1.904542,-4.72745 -1.908998,-5.47215 -0.0033,-0.55358 -0.05609,-0.60463 -0.289544,-0.28009 -0.237435,0.33007 -0.259019,0.3153 -0.128238,-0.0878 0.08649,-0.26657 0.182636,-5.68391 0.213666,-12.03854 0.03921,-8.02908 0.102714,-10.18168 0.208167,-7.05597 l 0.151749,4.49792 0.05642,-4.46122 0.05642,-4.46121 0.859896,0.15653 c 0.472942,0.0861 6.81302,1.06195 14.089063,2.16856 7.27604,1.10661 13.30719,2.09122 13.40255,2.18801 0.0954,0.0968 -0.0497,3.27162 -0.32233,7.05516 -0.54312,7.53677 -0.65326,9.86932 -0.47447,10.04811 0.0646,0.0646 4.1202,1.21006 9.01239,2.54539 4.89218,1.33533 9.02956,2.51111 9.19417,2.61285 0.20132,0.12442 -1.04442,3.28604 -3.80561,9.6584 l -4.1049,9.47343 -4.38806,17.22674 c -5.15175,20.22483 -4.58434,18.15331 -4.97168,18.15057 -0.17209,-10e-4 -3.2225,-1.07278 -6.77869,-2.38125 -3.55618,-1.30847 -6.56251,-2.37903 -6.68073,-2.37903 -0.29512,0 -0.26947,2.40833 0.0881,8.27146 0.16668,2.73293 0.22261,5.04941 0.12429,5.14773 -0.21073,0.21073 -14.725688,2.43968 -15.949555,2.44925 -0.460815,0.004 -0.887786,0.0959 -0.948823,0.20499 -0.06104,0.10914 -0.07096,0.0399 -0.02204,-0.15393 z m 11.929098,-41.88072 c 2.798939,-1.35495 3.484659,-4.98145 1.32796,-7.02309 -1.172281,-1.10974 -1.830644,-1.41153 -3.079348,-1.41153 -1.362101,0 -2.360707,0.38548 -3.299385,1.27361 -1.074894,1.01701 -1.497732,1.96464 -1.497732,3.3566 0,3.41406 3.342967,5.35618 6.548505,3.80441 z m -4.932798,-2.97667 c -0.562116,-0.67731 -0.221282,-1.32607 1.030126,-1.96082 0.867841,-0.44019 1.549275,-0.58365 2.513541,-0.52917 1.163815,0.0658 1.333566,0.15002 1.411462,0.70058 0.122285,0.86428 -0.258392,1.15882 -2.013677,1.55807 -0.832948,0.18945 -1.759818,0.41023 -2.05971,0.49062 -0.320939,0.086 -0.683688,-0.0206 -0.881742,-0.25928 z m -70.407371,29.04622 c 0,-0.13444 -0.510005,-0.20387 -1.133346,-0.1543 -1.309878,0.10418 -4.041396,-0.54504 -5.597659,-1.33045 C 9.181227,234.62502 4.9659932,225.90848 3.2915895,212.16435 2.8013468,208.14026 2.4897508,197.32781 2.7665332,193.94479 l 0.1948225,-2.38125 1.3635928,-1.27688 c 1.7617569,-1.64971 5.1843528,-3.93321 7.4031745,-4.93928 2.595204,-1.17672 6.119163,-2.12666 8.535888,-2.30099 l 2.140054,-0.15437 0.17505,3.64999 c 0.09628,2.00749 0.147577,13.95983 0.113999,26.56075 -0.0429,16.09872 -0.103416,20.11804 -0.203532,13.51807 l -0.14248,-9.39271 -0.03872,9.525 c -0.0213,5.23875 0.05353,10.23937 0.166295,11.1125 0.112761,0.87312 0.162245,1.63711 0.109965,1.69774 -0.05228,0.0606 -0.09506,2.5e-4 -0.09506,-0.1342 z m 53.425109,-26.37453 c -0.491001,-0.33088 -1.173988,-1.01549 -1.517751,-1.52135 -0.523499,-0.77034 -0.607597,-1.16877 -0.517734,-2.45282 0.08794,-1.25648 0.241618,-1.66222 0.851834,-2.24895 l 0.74454,-0.71589 -0.583562,0.81928 c -1.883222,2.64391 -0.247153,6.00249 3.15782,6.48248 l 1.192866,0.16816 -1.217644,0.0353 c -0.871162,0.0253 -1.471668,-0.13583 -2.110369,-0.56626 z m 2.666555,-2.72231 c -0.509323,-0.19271 -1.189744,-0.35709 -1.512046,-0.36531 -0.322302,-0.008 -0.718743,-0.26296 -0.880983,-0.56611 -0.237006,-0.44285 -0.199959,-0.65617 0.188481,-1.08539 0.992878,-1.09712 4.795335,-0.18653 5.070668,1.2143 0.222554,1.13231 -1.05156,1.48906 -2.86612,0.80251 z M 22.844867,184.68437 c 9.53e-4,-1.16417 0.04748,-1.6075 0.10337,-0.98519 0.05589,0.62231 0.05511,1.57481 -0.0017,2.11666 -0.05685,0.54186 -0.102584,0.0327 -0.101623,-1.13147 z"
         id="path4608"
         inkscape:connector-curvature="0" />
      <path
         style="fill:#d71818;stroke-width:0.26458332"
         d="m 86.39608,247.98593 c 0.09791,-3.96544 0.254862,-10.99455 0.348781,-15.62023 0.185383,-9.13065 0.143195,-8.90714 1.682867,-8.91582 2.093899,-0.0118 5.436348,-1.86438 6.433422,-3.56576 1.074434,-1.83338 0.686613,-4.06717 -0.975248,-5.61728 -0.967523,-0.90246 -3.511598,-1.95612 -5.125167,-2.12266 -0.805064,-0.0831 -1.526945,-0.25332 -1.604179,-0.37828 -0.232186,-0.37569 0.21682,-11.86799 0.463685,-11.86799 0.12564,0 1.117147,0.61784 2.203349,1.37297 1.086202,0.75513 2.056492,1.29139 2.1562,1.19168 0.09971,-0.0997 -0.181035,-1.40215 -0.623871,-2.89432 -0.936257,-3.15479 -1.039133,-2.87401 1.833142,-5.00331 2.516116,-1.86528 2.420016,-2.07535 -0.949378,-2.07535 -1.906805,0 -2.831526,-0.10338 -3.026537,-0.33836 -0.154445,-0.18609 -0.664292,-1.39816 -1.132994,-2.69348 l -0.852183,-2.35512 0.179277,-12.03971 c 0.0986,-6.62184 0.215696,-12.07614 0.260209,-12.12065 0.137092,-0.13709 28.076535,4.1819 28.261135,4.36873 0.0954,0.0965 -0.0497,3.27109 -0.32233,7.05463 -0.54312,7.53677 -0.65326,9.86932 -0.47447,10.04811 0.0646,0.0646 4.1202,1.21006 9.01239,2.54539 4.89218,1.33533 9.02956,2.51111 9.19417,2.61285 0.20132,0.12442 -1.04442,3.28604 -3.80561,9.6584 l -4.1049,9.47343 -4.38806,17.22674 c -5.15175,20.22483 -4.58434,18.15331 -4.97168,18.15057 -0.17209,-0.001 -3.2225,-1.07278 -6.77869,-2.38125 -3.55618,-1.30847 -6.56251,-2.37903 -6.68073,-2.37903 -0.29512,0 -0.26947,2.40833 0.0881,8.27146 0.16668,2.73293 0.22261,5.04941 0.12429,5.14773 -0.20052,0.20052 -14.69344,2.43903 -15.857366,2.44925 l -0.745654,0.007 0.17802,-7.2099 z m 11.433671,-34.62632 c 2.798939,-1.35495 3.484659,-4.98145 1.32796,-7.02309 -1.172281,-1.10974 -1.830644,-1.41153 -3.079348,-1.41153 -1.362101,0 -2.360707,0.38548 -3.299385,1.27361 -1.074894,1.01701 -1.497732,1.96464 -1.497732,3.3566 0,3.41406 3.342967,5.35618 6.548505,3.80441 z m -4.643506,-2.93128 c -0.174625,-0.17463 -0.3175,-0.59804 -0.3175,-0.94092 0,-0.86804 1.918624,-1.71092 3.6424,-1.60017 1.077576,0.0692 1.26446,0.16559 1.338847,0.69034 0.118515,0.83601 -0.39783,1.3745 -1.317974,1.3745 -0.423418,0 -1.197287,0.17859 -1.719707,0.39687 -1.146051,0.47885 -1.222841,0.4826 -1.626066,0.0794 z M 18.123957,238.82166 C 10.13452,236.4992 5.1690228,227.57502 3.2915895,212.16435 2.8013468,208.14026 2.4897508,197.32781 2.7665332,193.94479 l 0.1948225,-2.38125 1.3635928,-1.27688 c 4.2114865,-3.94365 10.6424555,-6.8583 15.9818215,-7.24329 l 2.182812,-0.15739 -2.33e-4,11.74711 c -1.28e-4,6.46091 -0.07919,19.15875 -0.175688,28.21742 l -0.175456,16.47032 -1.213374,-0.0188 c -0.667355,-0.0104 -1.927749,-0.22653 -2.800874,-0.48033 z M 78.978121,210.328 c -0.582083,-0.20008 -1.37782,-0.42632 -1.768303,-0.50276 -0.812773,-0.1591 -1.211691,-1.03091 -0.7347,-1.60565 0.444095,-0.5351 2.559727,-0.48946 3.673813,0.0793 1.165281,0.59485 1.571263,1.23081 1.182066,1.85168 -0.368287,0.5875 -1.01754,0.63648 -2.352876,0.17748 z"
         id="path4606"
         inkscape:connector-curvature="0" />
      <path
         style="fill:#562d1d;stroke-width:0.26458332"
         d="m 78.978121,210.328 c -0.582083,-0.20008 -1.37782,-0.42632 -1.768303,-0.50276 -0.812773,-0.1591 -1.211691,-1.03091 -0.7347,-1.60565 0.444095,-0.5351 2.559727,-0.48946 3.673813,0.0793 1.165281,0.59485 1.571263,1.23081 1.182066,1.85168 -0.368287,0.5875 -1.01754,0.63648 -2.352876,0.17748 z m 14.208124,0.10033 c -0.174625,-0.17463 -0.3175,-0.59804 -0.3175,-0.94092 0,-0.86804 1.918624,-1.71092 3.6424,-1.60017 1.077576,0.0692 1.26446,0.16559 1.338847,0.69034 0.118515,0.83601 -0.39783,1.3745 -1.317974,1.3745 -0.423418,0 -1.197287,0.17859 -1.719707,0.39687 -1.146051,0.47885 -1.222841,0.4826 -1.626066,0.0794 z"
         id="path4604"
         inkscape:connector-curvature="0" />
    </g>
  </g>
  <g
     style="display:none"
     transform="translate(0,-161.53332)"
     id="g4750"
     inkscape:groupmode="layer"
     inkscape:label="back"
     sodipodi:insensitive="true">
    <path
       style="fill:#ffff00;stroke-width:0.99985939"
       d="M 84.064453,80.683594 V 80.75 l -7.316406,0.527344 C 56.568492,82.732084 32.262562,93.745017 16.345703,108.64648 l -5.154297,4.82618 -0.736328,8.99804 c -1.0460692,12.78308 0.131555,53.63834 1.984375,68.84375 7.095557,58.23077 25.863377,91.95092 56.058594,100.72657 3.299879,0.95898 8.063741,1.77709 10.585937,1.8164 l 4.585938,0.0703 h 1.722656 l 4.583984,-0.0703 c 2.522196,-0.0393 7.286055,-0.85742 10.585938,-1.8164 30.19522,-8.77565 48.96304,-42.4958 56.05859,-100.72657 1.85282,-15.20541 3.03045,-56.06067 1.98438,-68.84375 l -0.73633,-8.99804 -5.1543,-4.82618 C 136.79799,93.745017 112.49207,82.732084 92.3125,81.277344 L 84.996094,80.75 v -0.06641 l -0.464844,0.0332 z"
       transform="matrix(0.26458333,0,0,0.26458333,0,161.53332)"
       id="path4762"
       inkscape:connector-curvature="0"
       sodipodi:nodetypes="cccccssccccccssccccccc" />
  </g>
  <g
     style="display:none;opacity:1"
     transform="translate(0,-161.53332)"
     id="g4639"
     inkscape:groupmode="layer"
     inkscape:label="face"
     sodipodi:insensitive="true">
    <path
       style="display:inline;fill:#ff00ff;stroke-width:0.26458332"
       d="m 85.063537,255.46427 c -0.436562,-0.11715 -4.051559,-0.54819 -8.033326,-0.95788 -5.0205,-0.51657 -7.278968,-0.84755 -7.36809,-1.0798 -0.07068,-0.1842 0.163724,-3.58218 0.520907,-7.55106 0.357182,-3.96889 0.552648,-7.32406 0.434369,-7.45592 -0.124659,-0.13899 -3.010197,0.73103 -6.864779,2.06979 -3.657351,1.27025 -6.792097,2.25491 -6.966105,2.18814 -0.182682,-0.0701 -1.918301,-7.48546 -4.107215,-17.54791 l -3.790838,-17.42651 -2.946837,-7.37393 c -3.170912,-1.63522 -3.70951,-6.39602 -3.928818,-9.95758 l -0.07635,-1.15569 8.699637,-2.8427 c 4.784799,-1.56349 8.792996,-2.94028 8.907103,-3.05953 0.114107,-0.11925 -0.0109,-3.78869 -0.277794,-8.15432 -0.370142,-6.05441 -0.411861,-8.00789 -0.175856,-8.23421 0.170175,-0.1632 6.549522,-1.14673 14.176324,-2.18564 7.626805,-1.03891 13.996649,-1.99471 14.155208,-2.124 0.230844,-0.18823 25.791793,3.48695 28.400273,4.08343 0.53304,0.12189 0.5948,0.29474 0.59039,1.65244 -0.003,0.83397 -0.2329,4.67147 -0.51156,8.52777 -0.27865,3.8563 -0.42527,7.08455 -0.32581,7.17389 0.0995,0.0893 4.25256,1.26733 9.22912,2.61777 5.21976,1.41643 9.10424,2.60116 9.18053,2.79997 0.0727,0.18955 -1.71304,4.59881 -3.96839,9.79836 l -4.10064,9.45373 -4.23128,16.55574 c -5.11224,20.00266 -4.92595,19.33387 -5.38553,19.33387 -0.20256,0 -3.26509,-1.06174 -6.80563,-2.35942 -3.54054,-1.29768 -6.511,-2.27994 -6.60102,-2.18281 -0.09,0.0971 0.006,3.02101 0.21431,6.49751 0.20789,3.47649 0.27878,6.42009 0.15754,6.54134 -0.24262,0.24262 -15.658806,2.63032 -16.735364,2.59202 -0.368901,-0.0131 -1.027917,-0.11971 -1.46448,-0.23686 z"
       transform="matrix(0.99996416,0,0,0.99975477,0,0.03960142)"
       id="path4818"
       inkscape:connector-curvature="0" />
  </g>
  <g
     inkscape:label="decoration and eyes"
     inkscape:groupmode="layer"
     id="g4912"
     transform="translate(0,-161.53332)"
     style="display:none;opacity:1"
     sodipodi:insensitive="true">
    <path
       inkscape:connector-curvature="0"
       id="path4906"
       transform="matrix(0.99996416,0,0,0.99975477,0,0.03960142)"
       d="m 81.349859,212.29638 c 1.6104,-1.91385 1.526527,-4.20421 -0.217842,-5.94858 -1.4239,-1.4239 -2.95561,-1.73723 -4.703767,-0.96221 -0.995016,0.44113 -2.17614,1.39149 -1.729359,1.39149 0.08315,0 -0.02133,0.41289 -0.232188,0.91754 -0.492718,1.17924 -0.487029,2.34787 0.01617,3.32094 0.219744,0.42494 0.368573,0.91948 0.330729,1.09898 -0.03785,0.1795 0.109784,0.33248 0.328065,0.33995 0.218281,0.007 0.694531,0.18616 1.058333,0.39709 0.87911,0.5097 2.865491,0.75232 3.767849,0.4602 0.398828,-0.12911 1.020734,-0.58604 1.382014,-1.0154 z"
       style="display:inline;fill:#ffeeaa;stroke:#ffeeaa;stroke-width:0.26458332" />
    <path
       inkscape:connector-curvature="0"
       id="path4908"
       transform="matrix(0.99996416,0,0,0.99975477,0,0.03960142)"
       d="m 98.292703,212.59397 c 2.334977,-1.43754 2.359707,-4.99118 0.04674,-6.71528 -1.029152,-0.76713 -3.290178,-0.77306 -4.310472,-0.0113 -2.306283,1.72188 -2.681904,4.37439 -0.875295,6.181 1.393881,1.39388 3.412969,1.60824 5.139023,0.54558 z"
       style="display:inline;fill:#ffeeaa;stroke:#ffeeaa;stroke-width:0.26458332" />
    <path
       inkscape:connector-curvature="0"
       id="path4910"
       transform="matrix(0.99996416,0,0,0.99975477,0,0.03960142)"
       d="m 84.791726,200.82213 2.539256,-1.72162 1.996649,1.34732 c 1.098156,0.74103 2.044128,1.29984 2.102165,1.24181 0.05804,-0.058 -0.187984,-1.05046 -0.546711,-2.2054 -0.358728,-1.15493 -0.654019,-2.35334 -0.656201,-2.66313 -0.0028,-0.39478 0.609348,-1.02788 2.046549,-2.11666 1.810239,-1.37138 1.973011,-1.56221 1.389062,-1.62849 -0.363802,-0.0413 -1.610357,-0.16035 -2.770121,-0.26458 l -2.108663,-0.18951 -0.847968,-2.24896 c -0.466384,-1.23693 -0.856938,-2.57638 -0.8679,-2.97656 -0.01095,-0.40018 -0.127732,-0.7276 -0.259492,-0.7276 -0.201039,0 -1.321972,2.78981 -1.993278,4.96093 -0.148405,0.47997 -0.377939,0.59532 -1.184654,0.59532 -2.308563,0 -5.049173,0.35302 -5.049173,0.65039 0,0.16949 0.94569,1.01523 2.101533,1.87941 1.155842,0.86418 2.162968,1.71702 2.238057,1.8952 0.07509,0.17818 -0.2144,1.48786 -0.643308,2.91041 -0.428908,1.42255 -0.78119,2.67576 -0.782849,2.7849 -0.0077,0.50851 0.959532,0.0616 3.297047,-1.52318 z"
       style="display:inline;fill:#ffeeaa;stroke:#ffeeaa;stroke-width:0.26458332" />
  </g>
  <g
     inkscape:label="wrist"
     inkscape:groupmode="layer"
     id="g4858"
     transform="translate(0,-161.53332)"
     style="display:none;opacity:1"
     sodipodi:insensitive="true">
    <path
       id="path4828"
       transform="matrix(0.99996416,0,0,0.99975477,0,0.03960142)"
       d="m 2.7997919,294.97374 c -0.137604,-1.51851 -0.097025,-2.10909 0.1619432,-2.35688 0.4976691,-0.47619 5.2691541,-1.6141 8.8845719,-2.1188 4.336008,-0.6053 12.576244,-0.39813 16.331817,0.4106 3.202511,0.68963 7.444321,2.06408 7.959214,2.57897 0.222332,0.22233 0.37516,0.90637 0.37516,1.67918 0,0.7172 0.119063,1.30401 0.264584,1.30401 0.14552,0 0.264583,0.11907 0.264583,0.26459 0,0.17365 -5.852766,0.26458 -17.02913,0.26458 H 2.9834053 Z"
       style="display:inline;fill:#4f97e5;stroke-width:0.26458332"
       inkscape:connector-curvature="0" />
    <path
       inkscape:connector-curvature="0"
       id="path4852"
       d="m 2.7996914,294.941 c -0.137599,-1.51814 -0.097021,-2.10857 0.1619374,-2.3563 0.4976513,-0.47607 5.2689653,-1.6137 8.8842532,-2.11828 4.335853,-0.60515 12.575794,-0.39803 16.331232,0.4105 3.202397,0.68946 7.444054,2.06357 7.958928,2.57834 0.222324,0.22227 0.375147,0.90614 0.375147,1.67876 0,0.71703 0.11906,1.30369 0.264576,1.30369 0.145513,0 0.264573,0.11905 0.264573,0.26453 0,0.17361 -5.852557,0.26451 -17.02852,0.26451 H 2.9832982 Z"
       style="display:inline;fill:#ff0000;stroke-width:0.26454613" />
  </g>
  <g
     style="display:none;opacity:1"
     transform="translate(0,-161.53332)"
     id="g4874"
     inkscape:groupmode="layer"
     inkscape:label="ankle"
     sodipodi:insensitive="true">
    <path
       inkscape:connector-curvature="0"
       style="display:inline;fill:#4f97e5;stroke-width:0.26458332"
       d="m 39.308104,296.66926 c -0.05401,-0.1819 -0.243993,-1.56451 -0.42218,-3.07247 -0.26602,-2.25127 -0.261519,-2.78034 0.02516,-2.95751 1.156983,-0.71505 10.459564,-1.97813 17.577466,-2.38662 7.783674,-0.44669 24.281534,0.24699 25.089476,1.05493 0.185745,0.18575 0.0851,1.30057 -0.318376,3.52668 -0.324487,1.79029 -0.512858,3.48973 -0.418602,3.77654 0.139263,0.42375 0.117879,0.4471 -0.114113,0.1246 -0.194132,-0.26987 -0.286787,-0.29104 -0.289544,-0.0661 -0.006,0.48522 -40.985199,0.48522 -41.129276,0 z"
       transform="matrix(0.99996416,0,0,0.99975477,0,0.03960142)"
       id="path4864" />
  </g>
  <g
     inkscape:label="feet"
     inkscape:groupmode="layer"
     id="g4888"
     transform="translate(0,-161.53332)"
     style="display:none;opacity:1"
     sodipodi:insensitive="true">
    <path
       id="path4880"
       transform="matrix(0.99996416,0,0,0.99975477,0,0.03960142)"
       d="m 103.91099,296.46435 c -1.43187,-0.36152 -2.86694,-1.15299 -3.66229,-2.01982 -1.22228,-1.33212 -11.348704,-15.10031 -11.348704,-15.43003 0,-0.45582 2.380358,-3.18118 2.778476,-3.18118 0.183121,0 0.844487,0.67753 1.469703,1.50563 2.98228,3.95 8.033045,8.08939 10.914565,8.94511 2.81471,0.83587 5.76522,0.23858 9.15436,-1.85318 2.52734,-1.55985 4.06624,-2.81959 7.21268,-5.90425 l 2.5579,-2.50769 1.01397,0.80408 c 1.51726,1.2032 2.02228,1.8379 1.77819,2.23478 -0.11751,0.19107 -2.99315,3.70969 -6.39031,7.81916 -6.33517,7.66351 -6.95663,8.25979 -9.59612,9.20733 -1.44944,0.52033 -4.53679,0.7198 -5.88242,0.38006 z"
       style="display:inline;fill:#4f97e5;stroke-width:0.26458332"
       inkscape:connector-curvature="0" />
  </g>
  <g
     style="display:inline;opacity:1"
     transform="translate(0,-161.53332)"
     id="g4902"
     inkscape:groupmode="layer"
     inkscape:label="4">
    <path
       inkscape:connector-curvature="0"
       style="display:inline;fill:#00ff00;stroke-width:0.26458332"
       d="m 127.35552,296.07123 c -5.19108,-3.1116 -4.34386,-14.10069 1.21552,-15.76632 2.23818,-0.67057 4.64209,0.85074 5.99438,3.79352 0.68043,1.4807 0.76043,1.93794 0.75282,4.3026 -0.007,2.26654 -0.10508,2.85445 -0.68214,4.10104 -1.74156,3.76221 -4.61141,5.1691 -7.28058,3.56916 z"
       transform="matrix(0.99996416,0,0,0.99975477,0,0.03960142)"
       id="path4896" />
  </g>
</svg>
