<?xml version="1.0" encoding="UTF-8" standalone="no"?>
<svg
   xmlns:dc="http://purl.org/dc/elements/1.1/"
   xmlns:cc="http://creativecommons.org/ns#"
   xmlns:rdf="http://www.w3.org/1999/02/22-rdf-syntax-ns#"
   xmlns:svg="http://www.w3.org/2000/svg"
   xmlns="http://www.w3.org/2000/svg"
   xmlns:sodipodi="http://sodipodi.sourceforge.net/DTD/sodipodi-0.dtd"
   xmlns:inkscape="http://www.inkscape.org/namespaces/inkscape"
   sodipodi:docname="image-not-found.svg"
   inkscape:version="1.0 (4035a4fb49, 2020-05-01)"
   id="svg8"
   version="1.1"
   viewBox="0 0 210 297"
   height="297mm"
   width="210mm">
  <defs
     id="defs2" />
  <sodipodi:namedview
     inkscape:window-maximized="1"
     inkscape:window-y="32"
     inkscape:window-x="-8"
     inkscape:window-height="1017"
     inkscape:window-width="1920"
     showgrid="false"
     inkscape:document-rotation="0"
     inkscape:current-layer="layer1"
     inkscape:document-units="mm"
     inkscape:cy="426.57384"
     inkscape:cx="400"
     inkscape:zoom="1.4"
     inkscape:pageshadow="2"
     inkscape:pageopacity="0.0"
     borderopacity="1.0"
     bordercolor="#666666"
     pagecolor="#ffffff"
     id="base" />
  <metadata
     id="metadata5">
    <rdf:RDF>
      <cc:Work
         rdf:about="">
        <dc:format>image/svg+xml</dc:format>
        <dc:type
           rdf:resource="http://purl.org/dc/dcmitype/StillImage" />
        <dc:title />
      </cc:Work>
    </rdf:RDF>
  </metadata>
  <g
     id="layer1"
     inkscape:groupmode="layer"
     inkscape:label="Layer 1">
    <rect
       inkscape:export-ydpi="96"
       inkscape:export-xdpi="96"
       ry="0"
       y="80.76667"
       x="37.26667"
       height="39.6875"
       width="79.375"
       id="rect853"
       style="fill:#fce94f;stroke:none;stroke-width:0.41432" />
    <path
       inkscape:export-ydpi="96"
       inkscape:export-xdpi="96"
       d="m 68.431383,92.946221 -0.250039,0.308783 c -0.239165,0.295349 -0.250039,0.611066 -0.250039,7.298636 0,4.69594 0.04586,7.07575 0.13945,7.25063 0.07662,0.14317 0.267869,0.31259 0.42499,0.37672 0.159334,0.065 3.977621,0.1051 8.633632,0.0907 l 8.347835,-0.0258 0.250043,-0.30878 c 0.23916,-0.29538 0.249781,-0.61228 0.249781,-7.34104 0,-6.729213 -0.01058,-7.045627 -0.249781,-7.341031 l -0.250043,-0.308783 h -8.523041 z m 8.523045,1.098485 c 3.787887,0 7.575875,0.05657 7.689153,0.169844 0.117075,0.117089 0.156495,1.536026 0.154518,5.590256 l -0.0025,5.433434 -0.814986,-0.85024 c -0.448231,-0.46767 -1.434411,-1.51216 -2.191613,-2.3211 -0.757202,-0.80893 -1.442824,-1.47086 -1.523478,-1.47086 -0.08065,0 -0.459697,0.23538 -0.842571,0.52306 -1.049388,0.7885 -1.166467,0.75066 -2.606898,-0.84308 -1.258395,-1.392314 -1.62957,-1.638433 -2.157897,-1.431275 -0.163918,0.06427 -1.396652,1.440725 -2.739193,3.058955 h 1.71e-4 c -1.342542,1.61823 -2.524126,3.02847 -2.625795,3.13379 -0.159402,0.16512 -0.184912,-0.5561 -0.184912,-5.23728 0,-4.047949 0.03981,-5.468655 0.156818,-5.58566 0.113275,-0.113274 3.901265,-0.169844 7.689154,-0.169844 z m 4.654457,1.467545 c -0.296516,-0.01404 -0.60986,0.03875 -0.921747,0.169078 -1.154477,0.482373 -1.378217,2.159285 -0.407111,3.051294 0.399856,0.367291 0.556128,0.424869 1.151097,0.424479 1.276133,-9.89e-4 2.015182,-0.774169 1.898666,-1.986778 -0.09327,-0.970612 -0.831352,-1.615964 -1.720905,-1.658073 z"
       style="fill:#1a1a1a;stroke-width:0.130766"
       id="path847" />
    <text
       id="text857"
       y="58.397316"
       x="31.183035"
       style="font-style:normal;font-weight:normal;font-size:10.5833px;line-height:1.25;font-family:sans-serif;fill:#000000;fill-opacity:1;stroke:none;stroke-width:0.264583"
       xml:space="preserve"><tspan
         style="stroke-width:0.264583"
         y="58.397316"
         x="31.183035"
         id="tspan855"
         sodipodi:role="line">Change the box background to </tspan><tspan
         id="tspan859"
         style="stroke-width:0.264583"
         y="71.626442"
         x="31.183035"
         sodipodi:role="line">transparent before export</tspan></text>
  </g>
</svg>
