<?xml version="1.0" encoding="UTF-8" standalone="no"?>
<svg
   xmlns:dc="http://purl.org/dc/elements/1.1/"
   xmlns:cc="http://creativecommons.org/ns#"
   xmlns:rdf="http://www.w3.org/1999/02/22-rdf-syntax-ns#"
   xmlns:svg="http://www.w3.org/2000/svg"
   xmlns="http://www.w3.org/2000/svg"
   xmlns:sodipodi="http://sodipodi.sourceforge.net/DTD/sodipodi-0.dtd"
   xmlns:inkscape="http://www.inkscape.org/namespaces/inkscape"
   width="210mm"
   height="297mm"
   viewBox="0 0 210 297"
   version="1.1"
   id="svg8"
   inkscape:version="1.0 (4035a4f, 2020-05-01)"
   sodipodi:docname="image-not-found.svg">
  <defs
     id="defs2" />
  <sodipodi:namedview
     id="base"
     pagecolor="#ffffff"
     bordercolor="#666666"
     borderopacity="1.0"
     inkscape:pageopacity="0.0"
     inkscape:pageshadow="2"
     inkscape:zoom="1.4"
     inkscape:cx="400"
     inkscape:cy="626.57384"
     inkscape:document-units="mm"
     inkscape:current-layer="layer1"
     inkscape:document-rotation="0"
     showgrid="false"
     inkscape:window-width="1920"
     inkscape:window-height="1035"
     inkscape:window-x="0"
     inkscape:window-y="23"
     inkscape:window-maximized="1" />
  <metadata
     id="metadata5">
    <rdf:RDF>
      <cc:Work
         rdf:about="">
        <dc:format>image/svg+xml</dc:format>
        <dc:type
           rdf:resource="http://purl.org/dc/dcmitype/StillImage" />
        <dc:title />
      </cc:Work>
    </rdf:RDF>
  </metadata>
  <g
     inkscape:label="Layer 1"
     inkscape:groupmode="layer"
     id="layer1">
    <rect
       style="fill:#fce94f;stroke:none;stroke-width:1"
       id="rect853"
       width="135.46666"
       height="135.46666"
       x="37.26667"
       y="80.76667"
       ry="0"
       inkscape:export-xdpi="96"
       inkscape:export-ydpi="96" />
    <path
       id="path847"
       style="fill:#888a85;stroke-width:0.264583"
       d="m 87.755576,132.99281 -0.505913,0.62477 c -0.48391,0.59759 -0.505911,1.23639 -0.505911,14.76757 0,9.50144 0.09279,14.31658 0.282153,14.67042 0.155035,0.28968 0.541988,0.63249 0.859897,0.76223 0.322384,0.13152 8.048045,0.21265 17.468698,0.18345 l 16.89044,-0.0522 0.50592,-0.62477 c 0.4839,-0.59766 0.50539,-1.23886 0.50539,-14.85336 0,-13.61544 -0.0214,-14.25565 -0.50539,-14.85335 l -0.50592,-0.62477 H 105 Z m 17.244944,2.2226 c 7.66415,0 15.32851,0.11446 15.55771,0.34365 0.23688,0.23691 0.31664,3.10789 0.31264,11.31094 l -0.005,10.99364 -1.64899,-1.72031 c -0.90692,-0.94625 -2.90229,-3.05961 -4.43436,-4.69635 -1.53207,-1.63674 -2.91931,-2.97605 -3.0825,-2.97605 -0.16318,0 -0.93012,0.47625 -1.7048,1.05834 -2.12326,1.59538 -2.36015,1.51882 -5.27462,-1.70584 -2.54615,-2.81712 -3.29716,-3.3151 -4.36614,-2.89595 -0.33166,0.13004 -2.82589,2.91507 -5.542296,6.18929 h 3.46e-4 c -2.716408,3.27422 -5.107143,6.1276 -5.312854,6.34069 -0.322522,0.33409 -0.374137,-1.12517 -0.374137,-10.59676 0,-8.19034 0.08054,-11.0649 0.317294,-11.30164 0.229193,-0.22919 7.893553,-0.34365 15.557707,-0.34365 z m 9.41751,2.96933 c -0.59995,-0.0284 -1.23395,0.0784 -1.865,0.3421 -2.33589,0.976 -2.78859,4.36895 -0.82372,6.17378 0.80904,0.74315 1.12523,0.85965 2.32905,0.85886 2.58204,-0.002 4.07738,-1.5664 3.84163,-4.01991 -0.18871,-1.96387 -1.6821,-3.26963 -3.48196,-3.35483 z"
       inkscape:export-xdpi="96"
       inkscape:export-ydpi="96" />
    <text
       xml:space="preserve"
       style="font-style:normal;font-weight:normal;font-size:10.5833px;line-height:1.25;font-family:sans-serif;fill:#000000;fill-opacity:1;stroke:none;stroke-width:0.264583"
       x="31.183035"
       y="58.397316"
       id="text857"><tspan
         sodipodi:role="line"
         id="tspan855"
         x="31.183035"
         y="58.397316"
         style="stroke-width:0.264583">Change the box background to </tspan><tspan
         sodipodi:role="line"
         x="31.183035"
         y="71.626442"
         style="stroke-width:0.264583"
         id="tspan859">transparent before export</tspan></text>
  </g>
</svg>
